<svg width="182" height="62" viewBox="0 0 182 62" fill="none" xmlns="http://www.w3.org/2000/svg">
<path d="M14.9226 14.0434H25.8472C29.0632 14.0434 31.5681 14.7949 33.3135 16.3018C35.0782 17.8086 35.9638 19.9688 35.9638 22.7974C35.9638 24.4137 35.6474 25.8148 35.0136 26.9893C34.3801 28.1789 33.446 29.1193 32.2048 29.8179C33.9179 30.4826 35.2301 31.5363 36.1481 32.9789C37.0595 34.4215 37.512 36.1738 37.512 38.2283C37.512 40.2563 37.0692 42.001 36.1868 43.4399C35.3045 44.8976 34.0439 46.023 32.4052 46.8161C30.7698 47.6091 28.8176 48.0057 26.5227 48.0057H14.9193L14.9226 14.0434ZM0.37793 61.25H52.0922V0.825562H0.37793V61.25ZM25.2978 19.7082C28.4362 19.7082 30.0167 21.0564 30.0167 23.7491C30.0167 25.1426 29.6159 26.2302 28.8111 27.0044C28.0063 27.7824 26.8395 28.1676 25.3204 28.1676H20.86V19.7082H25.2978ZM26.0476 33.4925H20.8115V42.6695H25.9506C27.7154 42.6695 29.0761 42.2805 30.0231 41.5063C30.9734 40.7283 31.4485 39.6142 31.4485 38.1565C31.4485 35.0522 29.6418 33.5114 26.0185 33.5114L26.0476 33.4925Z" fill="#E3E4E6"/>
<path d="M79.5652 14.0434H90.4898C93.7058 14.0434 96.2107 14.7949 97.956 16.3018C99.7208 17.8086 100.606 19.9688 100.606 22.7974C100.606 24.4137 100.29 25.8148 99.6562 26.9893C99.0227 28.1789 98.0853 29.1193 96.8474 29.8179C98.5605 30.4826 99.8727 31.5363 100.791 32.9789C101.702 34.4215 102.155 36.1738 102.155 38.2283C102.155 40.2563 101.712 42.001 100.829 43.4399C99.947 44.8976 98.6865 46.023 97.0478 46.8161C95.4123 47.6091 93.4601 48.0057 91.1653 48.0057H79.5619L79.5652 14.0434ZM65.0205 61.25H116.735V0.825562H65.0205V61.25ZM89.9403 19.7082C93.0787 19.7082 94.6593 21.0564 94.6593 23.7491C94.6593 25.1426 94.2585 26.2302 93.4537 27.0044C92.6489 27.7824 91.4821 28.1676 89.963 28.1676H85.5026V19.7082H89.9403ZM90.6902 33.4925H85.4541V42.6695H90.5932C92.358 42.6695 93.7187 42.2805 94.6657 41.5063C95.616 40.7283 96.0911 39.6142 96.0911 38.1565C96.0911 35.0522 94.2843 33.5114 90.6611 33.5114L90.6902 33.4925Z" fill="#E3E4E6"/>
<path d="M162.632 47.6544C164.219 47.205 165.615 46.5895 166.834 45.8153V39.3574C164.29 41.189 161.501 42.1067 158.495 42.1067C156.523 42.1067 154.842 41.6724 153.453 40.8038C152.069 39.9352 151.016 38.6701 150.292 36.9895C149.564 35.3279 149.202 33.315 149.202 30.9471C149.202 28.5868 149.577 26.5663 150.33 24.9424C151.083 23.2959 152.163 22.0383 153.563 21.1697C154.972 20.3011 156.675 19.8668 158.669 19.8668C160.121 19.8668 161.504 20.0926 162.806 20.5428C164.119 20.9922 165.337 21.6531 166.459 22.5217V15.9127C165.227 15.1688 163.892 14.6023 162.451 14.2133C161.013 13.8243 159.487 13.6317 157.861 13.6317C155.534 13.6317 153.433 14.0358 151.559 14.844C149.684 15.6522 148.068 16.8153 146.743 18.3373C145.401 19.8592 144.374 21.6833 143.662 23.8132C142.951 25.9394 142.596 28.3073 142.596 30.9509C142.596 33.6549 142.938 36.0869 143.624 38.2396C144.309 40.3997 145.291 42.2049 146.581 43.7155C147.867 45.2072 149.442 46.3478 151.3 47.1408C153.162 47.9339 155.243 48.3304 157.57 48.3304C159.322 48.3304 160.996 48.1046 162.58 47.6544H162.632ZM181.378 61.1744H129.664V0.75H181.378V61.1744Z" fill="#E3E4E6"/>
</svg>
