<svg width="185" height="66" viewBox="0 0 185 66" fill="none" xmlns="http://www.w3.org/2000/svg">
<path d="M0 1.1151C3.17516 1.03186 6.35098 0.966907 9.52518 1.06291C10.8487 1.10293 12.1866 1.2316 13.4578 2.08782C15.3554 3.36595 16.6937 5.57453 16.9786 9.126C17.3081 13.2337 16.6208 16.7179 14.3367 18.8511C15.8041 19.9059 17.1427 21.1507 17.7744 23.7811C18.771 27.9309 18.3259 33.6435 15.6624 36.2172C14.4952 37.3449 13.2673 38.082 11.9519 38.1246C8.00056 38.2524 4.04805 38.2677 0.0480075 38.3269C3.05284e-09 25.9507 0 13.5745 0 1.1151ZM9.78028 23.0537C8.09772 23.0537 6.41515 23.0537 4.74266 23.0537C4.74266 25.7762 4.74266 28.3934 4.74266 31.0455C6.56344 31.0455 8.35428 31.0901 10.1437 31.0211C10.765 30.9972 11.397 30.7817 11.9988 30.4944C12.9283 30.0508 13.5278 28.5619 13.5164 26.9559C13.5058 25.4702 12.8938 24.0094 11.9916 23.6087C11.306 23.3041 10.5862 23.2302 9.78028 23.0537ZM11.6191 14.8924C12.6432 13.1995 12.4779 10.3413 11.3421 9.29311C10.8636 8.85147 10.2849 8.55776 9.74529 8.5263C8.08031 8.42921 6.41226 8.49087 4.73615 8.49087C4.73615 11.0727 4.73615 13.571 4.73615 16.1275C6.03621 16.1275 7.31254 16.1136 8.58872 16.1318C9.63415 16.1468 10.647 15.9447 11.6191 14.8924Z" fill="#E3E4E6"/>
<path d="M185.001 38.2434C179.557 38.3266 174.114 38.3266 168.641 38.3266C168.641 25.904 168.641 13.5197 168.641 1.0835C174 1.0835 179.368 1.0835 184.766 1.0835C184.766 3.50881 184.766 5.9486 184.766 8.46006C180.976 8.46006 177.178 8.46006 173.352 8.46006C173.352 10.9703 173.352 13.4101 173.352 15.9216C176.7 15.9216 180.054 15.9216 183.436 15.9216C183.436 18.3728 183.436 20.7534 183.436 23.2057C180.085 23.2057 176.732 23.2057 173.351 23.2057C173.351 25.7754 173.351 28.2743 173.351 30.8676C177.202 30.8676 181.053 30.8676 184.953 30.8676C185.001 33.2985 185.001 35.7293 185.001 38.2434Z" fill="#E3E4E6"/>
<path d="M73.3994 0.499512C73.9904 0.676984 74.5327 0.861808 75.0766 1.03056C76.7407 1.54683 78.1882 2.85061 79.4908 4.67734C79.8309 5.15424 80.157 5.66105 80.5452 6.23671C79.5063 8.32291 78.4889 10.3662 77.4959 12.3603C76.8158 11.5295 76.1628 10.6956 75.4884 9.91712C74.6485 8.94743 73.7049 8.54688 72.7085 8.28134C71.2234 7.88558 69.9131 8.59148 68.7015 9.91419C67.1922 11.562 66.3488 14.0995 65.9893 17.0471C65.6397 19.9144 65.8253 22.7718 66.5966 25.4106C67.5415 28.6434 69.0733 30.6994 71.1464 31.183C73.1836 31.6582 75.0372 30.649 76.6197 28.3026C76.7196 28.1545 76.842 28.0525 76.9445 27.9087C77.1646 27.6002 77.4293 26.9575 77.5839 27.0312C77.8745 27.1698 78.1192 27.687 78.3493 28.1028C79.111 29.4794 79.8577 30.881 80.6338 32.3167C79.1223 35.2072 77.3649 37.4675 75.1219 38.2983C74.0343 38.7011 72.9069 39.0281 71.8018 38.9926C69.1167 38.9063 66.6628 37.5857 64.58 34.4411C62.6924 31.5912 61.5424 28.0637 61.0532 23.8496C60.6002 19.9477 60.7368 16.0732 61.5876 12.4028C62.7308 7.47114 64.7096 3.85863 67.6257 1.89976C68.6401 1.21839 69.6697 0.758596 70.7682 0.570123C71.6398 0.499512 72.4956 0.499512 73.3994 0.499512Z" fill="#E3E4E6"/>
<path d="M89.987 65.5004C89.6142 65.2086 89.298 64.8809 88.9624 64.6308C86.9506 63.1309 86.2805 58.2399 87.4689 55.0598C88.3873 52.6025 89.721 51.6946 91.3011 51.8578C92.838 52.0166 94.0115 53.3964 94.6363 55.8702C95.5195 59.3673 94.5803 63.7596 92.4122 64.9631C92.0845 65.145 91.7392 65.2318 91.3878 65.4315C90.9272 65.5004 90.4809 65.5004 89.987 65.5004ZM89.2159 61.1323C89.7596 62.2328 90.4089 62.8655 91.2789 62.566C92.3024 62.2137 92.9117 61.0946 93.0818 59.3733C93.3055 57.1105 92.5139 54.8442 90.9979 54.6926C90.1115 54.6039 89.4092 55.2982 88.9881 56.7464C88.55 58.2527 88.645 59.6665 89.2159 61.1323Z" fill="#E3E4E6"/>
<path d="M40.0989 65.4999C39.6657 65.3225 39.2718 65.1802 38.8926 64.9611C37.668 64.2534 36.6072 61.8705 36.5576 59.4515C36.5182 57.5363 36.6663 55.7503 37.3988 54.261C37.9942 53.0505 38.7555 52.2915 39.6768 51.9909C40.7642 51.6361 41.7905 51.8776 42.7661 52.7503C43.0283 52.9849 43.2589 53.3258 43.534 53.6536C43.2558 54.2701 42.9903 54.8764 42.713 55.4662C42.5265 55.863 42.3813 56.0352 42.0558 55.6082C40.4849 53.5473 38.7045 55.0724 38.3994 57.974C38.2125 59.751 38.6198 61.0654 39.3616 62.032C40.0939 62.9862 40.9634 62.8564 41.7794 62.2199C42.3209 61.7975 42.0369 60.9353 42.1094 60.1752C41.5112 60.1752 40.9561 60.1752 40.3814 60.1752C40.3814 59.2642 40.3814 58.4231 40.3814 57.5449C41.4984 57.5449 42.5979 57.5449 43.7405 57.5449C43.7405 59.4288 43.7442 61.284 43.7333 63.1389C43.7325 63.2862 43.6449 63.4585 43.5733 63.5738C42.85 64.7389 41.9735 65.252 40.9896 65.4303C40.6981 65.4999 40.4216 65.4999 40.0989 65.4999Z" fill="#E3E4E6"/>
<path d="M24.4252 65.4991C24.0388 65.3525 23.6904 65.242 23.3569 65.0528C22.2474 64.4233 21.5962 63.0008 21.5366 61.0676C21.4445 58.0809 21.5123 55.0793 21.5123 52.0425C21.9972 52.0425 22.5507 52.0425 23.1512 52.0425C23.1512 54.2701 23.1104 56.4827 23.1695 58.6873C23.1964 59.6882 23.3468 60.7294 23.5777 61.6493C23.7955 62.5172 24.6695 62.8911 25.3114 62.4788C25.9212 62.087 26.3225 61.1013 26.325 59.8905C26.3304 57.2922 26.3267 54.6938 26.3267 52.0488C26.9066 52.0488 27.4602 52.0488 28.0681 52.0488C28.0681 54.6995 28.0888 57.3516 28.0554 60.0018C28.0455 60.7854 27.9423 61.603 27.7789 62.3361C27.3172 64.4077 26.3631 65.2786 25.1123 65.4294C24.8883 65.4991 24.6792 65.4991 24.4252 65.4991Z" fill="#E3E4E6"/>
<path d="M99.1013 65.4999C98.6129 65.2633 98.1582 65.0779 97.7295 64.78C96.6985 64.0636 96.2615 62.5143 96.2106 60.7775C96.1261 57.8918 96.1876 54.9932 96.1876 52.0514C96.7651 52.0514 97.3185 52.0514 97.929 52.0514C97.929 54.1612 97.9103 56.2792 97.9377 58.3954C97.9496 59.3081 97.9868 60.2543 98.139 61.1182C98.3234 62.1638 99.1289 62.8611 99.6868 62.6528C100.511 62.3451 100.993 61.4545 100.999 60.1443C101.01 57.6607 101.002 55.1769 101.002 52.6931C101.002 52.492 101.002 52.2908 101.002 52.0464C101.586 52.0464 102.139 52.0464 102.743 52.0464C102.743 54.9714 102.784 57.8909 102.718 60.8034C102.699 61.6581 102.45 62.5669 102.184 63.3207C101.678 64.7547 100.837 65.2595 99.8897 65.4308C99.6325 65.4999 99.3896 65.4999 99.1013 65.4999Z" fill="#E3E4E6"/>
<path d="M163.895 1.03194C164.286 1.03194 164.625 1.03194 164.994 1.03194C164.994 13.4514 164.994 25.8338 164.994 38.327C164.008 38.327 163.005 38.2328 162.011 38.3568C161.217 38.4559 160.703 38.0417 160.229 36.8979C158.825 33.5103 157.355 30.2041 155.895 26.8855C154.715 24.2016 153.511 21.5504 152.324 18.8752C151.869 17.8497 151.435 16.7967 150.988 15.7597C150.915 15.589 150.828 15.4363 150.693 15.1679C150.693 22.9568 150.693 30.5801 150.693 38.2652C149.096 38.2652 147.518 38.2652 145.904 38.2652C145.904 25.9263 145.904 13.5439 145.904 1.0827C146 1.06886 146.129 1.03485 146.257 1.03438C147.401 1.0302 148.547 1.11246 149.686 0.996225C150.215 0.942287 150.49 1.37673 150.75 1.96648C152.486 5.90105 154.216 9.84307 155.941 13.7914C157.294 16.8879 158.637 19.9973 159.987 23.0983C160.014 23.161 160.067 23.1906 160.173 23.3073C160.173 15.8595 160.173 8.49757 160.173 1.03194C161.435 1.03194 162.64 1.03194 163.895 1.03194Z" fill="#E3E4E6"/>
<path d="M87.788 29.2735C87.788 32.317 87.788 35.2723 87.788 38.2775C86.1864 38.2775 84.6085 38.2775 83.002 38.2775C83.002 25.9006 83.002 13.5166 83.002 1.08253C84.5751 1.08253 86.1531 1.08253 87.7859 1.08253C87.7859 6.31617 87.7859 11.5577 87.7859 17.0041C87.9832 16.7141 88.1011 16.5725 88.1969 16.395C89.6299 13.7384 91.0621 11.0807 92.4897 8.41544C93.248 6.99974 93.9957 5.56684 94.7509 4.14613C95.2324 3.24033 95.7109 2.32894 96.2092 1.45147C96.3256 1.24645 96.516 1.05272 96.6734 1.0503C98.48 1.02244 100.287 1.03255 102.147 1.03255C102.098 1.22009 102.082 1.36032 102.035 1.44754C101.252 2.87699 100.468 4.30453 99.6785 5.72283C98.5806 7.69526 97.4763 9.65698 96.3778 11.6283C95.5757 13.0677 94.7756 14.5102 93.9815 15.9628C93.8108 16.275 93.6698 16.636 93.5032 17.0006C96.5178 24.0639 99.5258 31.112 102.58 38.269C102.403 38.292 102.266 38.3249 102.129 38.3252C100.507 38.3288 98.8851 38.3005 97.2638 38.3484C96.9028 38.3591 96.6803 38.1702 96.4814 37.6917C94.5245 32.9841 92.5625 28.2829 90.601 23.5813C90.4766 23.2831 90.3434 22.996 90.1898 22.6481C89.4223 24.0583 88.6625 25.4038 87.9457 26.8152C87.8068 27.0887 87.8191 27.6158 87.793 28.0318C87.7692 28.4121 87.788 28.8004 87.788 29.2735Z" fill="#E3E4E6"/>
<path d="M140.825 25.7853C141.272 27.6331 141.691 29.4253 142.125 31.2074C142.692 33.5373 143.27 35.8591 143.865 38.2706C142.16 38.2706 140.517 38.2706 138.809 38.2706C138.374 36.4231 137.92 34.5078 137.471 32.589C137.292 31.8248 137.14 31.0402 136.94 30.2942C136.895 30.1266 136.698 29.9941 136.57 29.9934C133.789 29.9765 131.008 29.9728 128.227 30.0046C128.096 30.0061 127.905 30.3141 127.845 30.5559C127.212 33.1234 126.6 35.7064 125.978 38.3017C124.351 38.3017 122.734 38.3017 121.059 38.3017C121.392 36.9313 121.714 35.6058 122.037 34.2807C122.777 31.2394 123.513 28.1952 124.259 25.1582C124.883 22.6171 125.524 20.0883 126.149 17.5476C126.889 14.5369 127.617 11.5179 128.355 8.50518C128.951 6.06966 129.546 3.63383 130.162 1.21304C130.208 1.03232 130.41 0.872426 130.54 0.870061C131.905 0.84534 133.269 0.854809 134.669 0.854809C135.26 3.22516 135.858 5.5938 136.441 7.97362C137.07 10.54 137.682 13.1188 138.305 15.6887C139.05 18.7575 139.799 21.8236 140.55 24.8881C140.621 25.1772 140.719 25.4466 140.825 25.7853ZM134.187 18.5436C133.61 16.132 133.032 13.7203 132.398 11.0703C131.449 15.0808 130.557 18.8495 129.653 22.6692C131.514 22.6692 133.301 22.6692 135.151 22.6692C134.822 21.2991 134.509 19.9918 134.187 18.5436Z" fill="#E3E4E6"/>
<path d="M58.7987 38.3266C57.9624 38.3266 57.1768 38.2983 56.3925 38.3395C56.0429 38.3578 55.8505 38.2084 55.7147 37.5938C55.1922 35.2288 54.6384 32.8842 54.0748 30.5477C54.0162 30.3051 53.8149 30.0049 53.6788 30.0034C50.7955 29.972 47.9121 29.9796 45.0342 29.9796C44.3777 32.7698 43.7286 35.5284 43.0781 38.2932C41.4625 38.2932 39.8456 38.2932 38.1582 38.2932C38.3779 37.3602 38.5754 36.4928 38.7853 35.6347C40.1448 30.0781 41.5031 24.5207 42.8694 18.9691C44.0938 13.9937 45.3278 9.02547 46.5579 4.05433C46.7783 3.16384 46.9843 2.2608 47.232 1.39377C47.2996 1.15733 47.4939 0.881009 47.6323 0.877178C49.0135 0.83896 50.3951 0.853986 51.7662 0.853986C54.8327 13.3494 57.8906 25.8097 60.9623 38.3266C60.2149 38.3266 59.5324 38.3266 58.7987 38.3266ZM50.6544 22.6982C51.1656 22.6982 51.6768 22.6982 52.2413 22.6982C51.3287 18.8371 50.4275 15.0242 49.4881 11.0499C48.5501 15.0093 47.6438 18.8351 46.7286 22.6982C48.0297 22.6982 49.291 22.6982 50.6544 22.6982Z" fill="#E3E4E6"/>
<path d="M27.2478 38.3265C25.287 38.3265 23.3775 38.3265 21.4385 38.3265C21.4385 25.9033 21.4385 13.5194 21.4385 1.0835C23.0083 1.0835 24.5862 1.0835 26.2049 1.0835C26.2049 10.909 26.2049 20.7477 26.2049 30.6575C29.5643 30.6575 32.8836 30.6575 36.2325 30.6575C36.2325 33.2266 36.2325 35.7255 36.2325 38.3265C33.2594 38.3265 30.2792 38.3265 27.2478 38.3265Z" fill="#E3E4E6"/>
<path d="M109.197 29.0854C109.197 29.6436 109.197 30.114 109.197 30.655C112.502 30.655 115.787 30.655 119.103 30.655C119.103 33.2242 119.103 35.7231 119.103 38.2748C114.223 38.2748 109.333 38.2748 104.413 38.2748C104.413 25.9067 104.413 13.5227 104.413 1.08545C105.981 1.08545 107.559 1.08545 109.197 1.08545C109.197 10.3783 109.197 19.6879 109.197 29.0854Z" fill="#E3E4E6"/>
<path d="M104.383 59.2833C104.383 56.8307 104.383 54.4669 104.383 51.8413C106.006 52.0164 107.605 52.0914 109.19 52.3997C110.023 52.5619 110.718 54.3144 110.732 55.8025C110.743 56.9581 110.828 58.165 110.318 59.1046C110.005 59.6813 109.639 60.1717 109.283 60.7227C109.818 62.0805 110.408 63.578 111.024 65.1439C110.364 65.1439 109.738 65.1638 109.114 65.1257C109 65.1187 108.858 64.9145 108.786 64.7334C108.428 63.8409 108.069 62.9456 107.749 62.0118C107.501 61.2849 107.198 60.8829 106.69 61.0508C106.527 61.1047 106.353 61.0593 106.143 61.0593C106.143 62.4067 106.143 63.724 106.143 65.0921C105.55 65.0921 104.996 65.0921 104.383 65.0921C104.383 63.1956 104.383 61.2839 104.383 59.2833ZM106.124 55.4917C106.124 56.4513 106.124 57.4108 106.124 58.3953C106.766 58.3953 107.343 58.4193 107.919 58.3883C108.451 58.3596 108.951 57.5829 108.992 56.7839C109.038 55.9009 108.763 55.1355 108.177 54.9747C107.55 54.8024 106.9 54.8701 106.259 54.8685C106.214 54.8684 106.169 55.1622 106.124 55.4917Z" fill="#E3E4E6"/>
<path d="M122.626 65.1447C122.429 65.1447 122.281 65.1447 122.119 65.1447C122.119 60.747 122.119 56.4373 122.119 52.0026C122.989 52.0026 123.869 51.9565 124.746 52.0173C125.444 52.0657 126.157 52.1172 126.832 52.3965C127.766 52.7832 128.316 53.995 128.438 55.6034C128.595 57.6719 128.292 59.5624 126.934 60.5915C127.515 62.0668 128.092 63.5339 128.726 65.1438C128.024 65.1438 127.403 65.1566 126.784 65.1296C126.693 65.1257 126.577 64.9656 126.519 64.8217C126.132 63.8596 125.732 62.9088 125.389 61.9006C125.166 61.2454 124.908 60.9211 124.465 61.0512C124.284 61.1043 124.093 61.06 123.868 61.06C123.868 62.4018 123.868 63.718 123.868 65.1447C123.445 65.1447 123.061 65.1447 122.626 65.1447ZM126.713 56.6831C126.659 55.7458 126.328 54.9664 125.817 54.8866C125.166 54.7853 124.507 54.8621 123.88 54.8621C123.88 56.1076 123.88 57.2444 123.88 58.3961C124.392 58.3961 124.868 58.3982 125.345 58.3956C126.091 58.3915 126.43 58.0014 126.713 56.6831Z" fill="#E3E4E6"/>
<path d="M45.2773 61.9469C45.2773 58.609 45.2773 55.3598 45.2773 52.1666C46.5757 52.1666 47.8552 52.1634 49.1346 52.1681C49.7451 52.1703 50.3566 52.317 50.7771 53.1393C51.1123 53.7948 51.515 54.5629 51.588 55.3631C51.7792 57.4616 51.5721 59.4648 50.1126 60.5897C50.694 62.0626 51.274 63.5319 51.9098 65.1426C51.1904 65.1426 50.5676 65.1601 49.9458 65.1239C49.8515 65.1183 49.7406 64.8881 49.6738 64.7186C49.3203 63.8221 48.9549 62.9356 48.64 61.9987C48.3902 61.2556 48.0773 60.8986 47.5772 61.0513C47.4142 61.101 47.2419 61.0591 47.0343 61.0591C47.0343 62.4144 47.0343 63.73 47.0343 65.0943C46.442 65.0943 45.8887 65.0943 45.2773 65.0943C45.2773 64.0817 45.2773 63.0587 45.2773 61.9469ZM49.2761 55.024C48.5308 54.9398 47.7854 54.8556 47.048 54.7723C47.048 56.0884 47.048 57.2228 47.048 58.3951C47.2274 58.3951 47.3783 58.3951 47.5293 58.3951C47.9203 58.3951 48.3118 58.416 48.7022 58.3899C49.2289 58.3547 49.7771 57.7339 49.8689 57.0395C49.9825 56.1809 49.7461 55.5577 49.2761 55.024Z" fill="#E3E4E6"/>
<path d="M61.5645 63.1878C61.5645 59.4381 61.5645 55.7768 61.5645 52.1623C62.6894 52.1623 63.7977 52.1604 64.906 52.1629C65.7085 52.1648 66.4226 52.614 67.0752 53.4161C67.9589 54.5023 68.3964 56.0423 68.5207 57.8384C68.6502 59.7091 68.3996 61.4647 67.6874 62.9238C67.0672 64.1942 66.2393 65.0016 65.2926 65.1105C64.0735 65.2508 62.845 65.1447 61.5645 65.1447C61.5645 64.4961 61.5645 63.8861 61.5645 63.1878ZM63.3059 55.8387C63.3059 58.0434 63.3059 60.248 63.3059 62.4808C63.692 62.4808 64.0146 62.4723 64.337 62.4825C65.1849 62.5092 65.8689 61.995 66.3889 60.7862C66.8841 59.6351 66.769 56.665 65.9112 55.6426C65.0854 54.6585 64.2284 54.9076 63.3059 54.8432C63.3059 55.1531 63.3059 55.4092 63.3059 55.8387Z" fill="#E3E4E6"/>
<path d="M74.362 59.9945C73.4267 59.9945 72.542 59.9945 71.6303 59.9945C71.6303 60.8216 71.6303 61.6041 71.6303 62.4578C72.9683 62.4578 74.3077 62.4578 75.6735 62.4578C75.6735 63.3681 75.6735 64.2097 75.6735 65.0984C73.7541 65.0984 71.8349 65.0984 69.8887 65.0984C69.8887 60.7646 69.8887 56.4313 69.8887 52.0503C71.7728 52.0503 73.6577 52.0503 75.5705 52.0503C75.5705 52.9472 75.5705 53.8479 75.5705 54.8199C74.2676 54.8199 72.9624 54.8199 71.6304 54.8199C71.6304 55.6709 71.6304 56.4534 71.6304 57.3072C72.7632 57.3072 73.8978 57.3072 75.0588 57.3072C75.0588 58.2177 75.0588 59.0592 75.0588 59.9945C74.8438 59.9945 74.6282 59.9945 74.362 59.9945Z" fill="#E3E4E6"/>
<path d="M148.028 54.8431C147.775 54.8431 147.571 54.8431 147.336 54.8431C147.336 55.6539 147.336 56.4364 147.336 57.2901C148.455 57.2901 149.589 57.2901 150.755 57.2901C150.755 58.2004 150.755 59.0421 150.755 59.955C149.636 59.955 148.501 59.955 147.335 59.955C147.335 60.8062 147.335 61.5887 147.335 62.4423C148.627 62.4423 149.932 62.4423 151.268 62.4423C151.268 63.3526 151.268 64.1942 151.268 65.0901C149.395 65.0901 147.51 65.0901 145.594 65.0901C145.594 60.7778 145.594 56.4444 145.594 52.0562C147.465 52.0562 149.351 52.0562 151.267 52.0562C151.267 52.9317 151.267 53.8324 151.267 54.8431C150.214 54.8431 149.146 54.8431 148.028 54.8431Z" fill="#E3E4E6"/>
<path d="M53.2938 62.004C54.1279 58.6465 54.9382 55.3459 55.7593 52.0018C55.8697 52.0018 55.9905 52.0303 56.1054 51.9972C57.0055 51.7383 57.5348 52.2167 57.8894 53.8485C58.7153 57.6498 59.6859 61.3567 60.6036 65.1253C59.9819 65.1253 59.3726 65.1253 58.7352 65.1253C58.551 64.292 58.3761 63.4408 58.1682 62.6144C58.1292 62.4594 57.9593 62.3186 57.8486 62.3158C56.9111 62.2924 55.9734 62.3024 55.0502 62.3024C54.8968 62.8952 54.6896 63.4218 54.627 63.9958C54.5022 65.1397 54.0904 65.2577 53.5438 65.1542C53.2404 65.0967 52.9303 65.1438 52.5586 65.1438C52.8033 64.0832 53.0366 63.0721 53.2938 62.004ZM56.8789 59.6384C57.059 59.6384 57.2392 59.6384 57.4572 59.6384C57.1581 58.3643 56.8759 57.1622 56.5606 55.8188C56.2457 57.1391 55.9536 58.3637 55.6496 59.6384C56.043 59.6384 56.4136 59.6384 56.8789 59.6384Z" fill="#E3E4E6"/>
<path d="M136.446 65.1438C135.513 65.1438 135.514 65.1431 135.217 63.7272C135.156 63.4333 135.108 63.1141 135.006 62.8673C134.91 62.637 134.752 62.3352 134.617 62.3272C133.783 62.2776 132.947 62.2813 132.112 62.3243C131.983 62.331 131.804 62.5846 131.743 62.8037C131.572 63.4154 131.471 64.0841 131.302 64.6972C131.246 64.8983 131.072 65.1118 130.946 65.1238C130.436 65.172 129.925 65.1438 129.361 65.1438C129.705 63.7318 130.031 62.3814 130.361 61.0331C131.039 58.2608 131.721 55.4909 132.396 52.7166C132.513 52.236 132.64 51.8259 133.007 51.9987C133.054 52.0211 133.11 52.0174 133.159 51.9994C134.005 51.689 134.361 52.4007 134.663 53.7328C135.496 57.4064 136.436 61.0062 137.331 64.6379C137.362 64.7647 137.355 64.9195 137.373 65.1438C137.065 65.1438 136.78 65.1438 136.446 65.1438ZM132.675 59.6383C133.176 59.6383 133.678 59.6383 134.27 59.6383C133.968 58.3422 133.699 57.1902 133.384 55.8373C133.136 56.8272 132.935 57.565 132.768 58.326C132.677 58.7429 132.646 59.199 132.675 59.6383Z" fill="#E3E4E6"/>
<path d="M34.9542 53.3741C35.8338 54.8218 35.9344 56.5743 35.5972 58.3556C35.2755 60.0551 34.4597 61.0917 33.1834 61.24C32.63 61.3042 32.078 61.407 31.464 61.5017C31.464 62.6385 31.464 63.8581 31.464 65.1086C30.8531 65.1086 30.3001 65.1086 29.7266 65.1086C29.7266 60.7444 29.7266 56.4151 29.7266 51.9704C31.2209 52.2001 32.7309 51.5478 34.1792 52.5388C34.4469 52.7219 34.6793 53.0603 34.9542 53.3741ZM34.0048 56.8495C33.8544 54.8328 33.1225 54.6316 31.479 54.9491C31.479 56.1493 31.479 57.3464 31.479 58.5725C31.9013 58.5725 32.2923 58.5729 32.6833 58.5724C33.4393 58.5712 33.7375 58.1968 34.0048 56.8495Z" fill="#E3E4E6"/>
<path d="M163.875 55.7287C163.613 55.5526 163.401 55.3128 163.169 55.2093C162.678 54.9903 162.179 54.7456 161.678 54.7117C161.468 54.6975 161.151 55.1136 161.054 55.4733C160.909 56.0038 161.178 56.4298 161.454 56.6075C161.991 56.9524 162.548 57.1986 163.092 57.5106C163.755 57.8906 164.435 58.2784 164.769 59.4673C165.542 62.2234 164.487 65.1632 162.729 65.3282C161.534 65.4404 160.399 65.2126 159.411 63.9048C159.346 63.8184 159.276 63.7407 159.205 63.6686C159.101 63.5627 158.994 63.4655 158.875 63.3516C159.239 62.6222 159.493 62.0395 159.797 61.5487C159.893 61.3935 160.174 61.3535 160.28 61.4829C160.957 62.3062 161.675 62.796 162.518 62.6643C162.924 62.6009 163.236 62.2045 163.245 61.5948C163.251 61.2466 162.929 60.7222 162.69 60.5549C161.963 60.046 161.191 59.7328 160.463 59.2284C159.753 58.7367 159.338 57.8161 159.28 56.411C159.207 54.6359 159.551 53.1929 160.461 52.427C161.833 51.2721 163.729 51.8998 164.818 53.7034C164.517 54.3763 164.216 55.0515 163.875 55.7287Z" fill="#E3E4E6"/>
<path d="M138.902 60.545C138.321 58.026 137.741 55.5783 137.162 53.1298C137.083 52.7936 137.008 52.4535 136.906 52.002C137.549 52.002 138.123 51.9842 138.697 52.0198C138.791 52.0256 138.929 52.2352 138.965 52.4032C139.542 55.0938 140.107 57.7929 140.816 60.5791C140.998 59.7989 141.19 59.0244 141.362 58.2373C141.816 56.1658 142.261 54.0889 142.705 52.0382C143.335 52.0382 143.928 52.0382 144.605 52.0382C144.301 53.3527 144.012 54.5849 143.73 55.8222C143.074 58.7058 142.422 61.5918 141.768 64.4768C141.639 65.0447 141.48 65.4582 141.046 65.3406C140.697 65.2461 140.333 65.3215 139.99 65.3215C139.621 63.725 139.262 62.1705 138.902 60.545Z" fill="#E3E4E6"/>
<path d="M82.3588 60.6029C82.2203 60.018 82.1095 59.4827 81.9384 59.0136C81.1379 56.8188 80.3199 54.6432 79.5129 52.4555C79.4809 52.3689 79.4969 52.2292 79.4873 52.0566C80.1591 52.0566 80.8131 52.0566 81.4874 52.0566C81.9731 53.485 82.4771 54.95 82.9702 56.4261C83.1415 56.939 83.2713 56.9314 83.4463 56.4278C83.888 55.1573 84.3573 53.9151 84.7876 52.6333C84.9295 52.2105 85.067 51.9696 85.3677 51.9911C85.8912 52.0285 86.4163 52.0015 87.0379 52.0015C86.5632 53.315 86.1345 54.5164 85.6968 55.7079C85.2015 57.0564 84.6914 58.3887 84.2049 59.7466C84.1248 59.9699 84.1064 60.2876 84.1047 60.5626C84.0954 62.0628 84.1003 63.5632 84.1003 65.1032C83.5129 65.1032 82.9598 65.1032 82.3588 65.1032C82.3588 63.619 82.3588 62.1511 82.3588 60.6029Z" fill="#E3E4E6"/>
<path d="M114.957 52.0081C117.016 52.0034 119.026 52.0034 121.058 52.0034C121.058 52.968 121.058 53.8686 121.058 54.8403C120.318 54.8403 119.592 54.8403 118.828 54.8403C118.828 58.2974 118.828 61.6844 118.828 65.1077C118.234 65.1077 117.68 65.1077 117.086 65.1077C117.086 61.691 117.086 58.3039 117.086 54.8468C116.322 54.8468 115.596 54.8468 114.798 54.8468C114.836 53.8513 114.872 52.932 114.957 52.0081Z" fill="#E3E4E6"/>
<path d="M154.474 54.1353C154.474 56.942 154.474 59.6604 154.474 62.4493C155.733 62.4493 156.97 62.4493 158.235 62.4493C158.235 63.36 158.235 64.2015 158.235 65.0939C156.424 65.0939 154.608 65.0939 152.762 65.0939C152.762 60.77 152.762 56.4365 152.762 52.0522C153.309 52.0522 153.862 52.0522 154.474 52.0522C154.474 52.7077 154.474 53.3774 154.474 54.1353Z" fill="#E3E4E6"/>
</svg>
