<svg width="194" height="60" viewBox="0 0 194 60" fill="none" xmlns="http://www.w3.org/2000/svg">
<path d="M158.034 41.9459C157.018 40.4557 156.319 40.1279 155.137 35.242C155.131 35.4458 155.12 35.6496 155.12 35.8534C155.118 38.6676 155.109 41.482 155.127 44.296C155.13 44.8749 155.007 45.0447 154.616 45.0411C152.171 45.0188 149.726 45.0193 147.281 45.0407C146.901 45.0441 146.782 44.8583 146.798 44.3171C146.823 43.4707 146.805 42.6217 146.805 41.7739C146.769 41.7545 146.733 41.7351 146.697 41.7157C146.601 41.8369 146.497 41.9474 146.41 42.0807C145.071 44.1128 143.435 45.2178 141.529 45.5205C139.262 45.8807 137.085 45.4868 135.072 43.8279C132.797 41.9531 131.231 39.2128 130.494 35.5009C130.131 33.676 129.894 31.8211 129.936 29.9119C129.951 29.2678 129.674 29.3407 129.399 29.3407C124.427 29.3416 119.455 29.3413 114.483 29.3413C112.88 29.3413 111.277 29.3413 109.674 29.3413C109.531 29.3413 109.387 29.3413 109.117 29.3413C109.473 30.1829 109.733 30.924 110.072 31.5775C111.244 33.8384 112.843 35.0917 114.734 35.4068C116.749 35.7426 118.62 35.114 120.191 33.0707C120.301 32.9279 120.478 32.8269 120.625 32.8261C123.233 32.8114 125.841 32.8147 128.45 32.8178C128.54 32.818 128.631 32.8564 128.782 32.8907C128.297 34.8004 127.609 36.4795 126.757 38.0016C124.705 41.668 122.146 44.2224 118.969 45.2584C112.369 47.4101 104.433 43.197 101.647 31.8281C101.647 32.3913 101.652 32.9546 101.646 33.5176C101.619 35.7913 101.094 37.8248 100.154 39.5938C98.1885 43.2921 95.532 45.1506 92.401 45.6276C90.1959 45.9636 88.0061 45.8426 85.8989 44.7118C83.64 43.4996 81.7802 41.5052 80.574 38.3861C80.0283 36.9752 79.7254 35.411 79.5653 33.8027C79.4991 33.137 79.5725 33.0552 80.0469 33.0548C82.533 33.053 85.0191 33.0703 87.5049 33.0376C87.9133 33.0322 88.052 33.25 88.1033 33.7878C88.3153 36.0118 89.5543 36.9296 90.7599 36.8794C91.7926 36.8363 92.7415 35.5046 92.8356 34.0141C92.9044 32.9239 92.2533 31.4203 91.4382 31.0466C90.2369 30.4959 89.0119 30.055 87.794 29.5844C86.2016 28.9691 84.6306 28.2692 83.2665 26.8548C81.6045 25.1317 80.6422 22.7598 80.3743 19.8024C80.2996 18.9775 80.3089 18.1352 80.2926 17.3004C80.2863 16.9766 80.2387 16.7966 79.9792 16.7603C78.4256 16.5432 76.9205 16.8317 75.4915 17.7488C74.2291 18.559 73.4025 19.9369 73.3705 22.0383C73.3107 25.9654 73.2978 29.8942 73.283 33.8224C73.2697 37.3351 73.2806 40.848 73.2798 44.3609C73.2797 45.1465 73.2777 45.149 72.7338 45.1492C70.2885 45.1502 67.8432 45.1354 65.3981 45.1631C64.9746 45.1679 64.8747 44.9618 64.8765 44.3725C64.8908 39.7221 64.8846 35.0716 64.8842 30.4211C64.8841 29.5838 64.8829 29.5813 64.3323 29.5812C57.8115 29.5806 51.2908 29.5807 44.7701 29.5821C44.6248 29.5821 44.4794 29.6011 44.2707 29.6156C44.5471 30.643 44.9204 31.4831 45.3798 32.2326C46.4913 34.0461 47.8766 35.1626 49.5186 35.5167C51.6015 35.9659 53.5006 35.3244 55.1454 33.3071C55.259 33.1678 55.4338 33.0662 55.5805 33.0654C58.2431 33.0511 60.9057 33.0544 63.5683 33.0575C63.6601 33.0576 63.7518 33.095 63.9076 33.129C63.4703 34.9962 62.7765 36.6028 61.9659 38.0789C60.1699 41.3494 57.935 43.7778 55.1799 44.9892C50.8948 46.8734 46.7742 46.1418 42.9158 42.8279C39.004 39.4681 36.8713 34.3015 36.0896 27.8067C35.9973 28.4168 35.9095 29.0285 35.8117 29.6367C35.2831 32.9239 34.2053 35.7876 32.7193 38.3445C30.6209 41.9551 27.948 44.0309 24.7825 44.7985C22.7237 45.2978 20.6939 45.0984 18.7365 44.0275C17.9165 43.5788 17.1532 42.9056 16.366 42.3291C16.2364 42.2342 16.1163 42.1113 15.9211 41.9389C15.9103 42.266 15.8963 42.4915 15.8963 42.717C15.895 46.9683 15.8956 51.2196 15.895 55.4709C15.8949 56.285 15.8934 56.2869 15.327 56.2871C12.9361 56.2878 10.5452 56.2878 8.15423 56.2871C7.58309 56.2869 7.58133 56.2852 7.58131 55.4781C7.58097 38.9319 7.58097 22.3858 7.58131 5.83967C7.58133 5.03389 7.58308 5.03079 8.11321 5.0305C10.4226 5.02926 12.7321 5.04283 15.0414 5.01781C15.4443 5.01344 15.5929 5.16591 15.5821 5.78567C15.5705 6.45248 15.6509 7.12275 15.6971 7.88874C15.9404 7.65529 16.1537 7.46667 16.3555 7.25453C17.7602 5.77799 19.3312 4.87352 21.0212 4.45326C23.3412 3.87632 25.6134 4.19306 27.804 5.49754C29.7687 6.66749 31.3769 8.53749 32.7498 10.8972C33.8934 12.8628 34.7768 15.0496 35.3532 17.4721C35.6951 18.9088 35.8643 20.4342 36.1102 21.92C36.1291 22.0342 36.1377 22.1521 36.159 22.2651C36.1642 22.2929 36.2005 22.308 36.2973 22.4002C37.0248 17.1622 38.7811 12.8844 41.6939 9.69718C44.5949 6.52291 47.8855 4.97871 51.4652 5.47263C58.6763 6.46762 63.1379 12.2925 64.8844 22.5504C64.8844 22.4242 64.8844 22.1979 64.8844 21.9717C64.8844 16.8821 64.8842 11.7925 64.8846 6.70293C64.8847 5.87104 64.886 5.86887 65.4403 5.86865C67.6954 5.86776 69.9506 5.87999 72.2055 5.85715C72.5935 5.85323 72.7302 6.01638 72.7175 6.59996C72.6912 7.81623 72.7096 9.0346 72.7096 10.2521C72.7096 10.4644 72.7096 10.6767 72.7096 10.889C72.7444 10.9117 72.7792 10.9343 72.814 10.957C72.9992 10.6368 73.1826 10.3141 73.3701 9.99672C74.5978 7.9193 76.0767 6.41924 77.9464 5.942C78.6744 5.75619 79.4304 5.80246 80.1741 5.75676C80.4917 5.73725 80.4518 6.09801 80.452 6.39091C80.4539 8.90576 80.4527 11.4206 80.4543 13.9355C80.4544 14.1621 80.4681 14.3887 80.5627 14.6284C80.7024 14.1449 80.8321 13.6546 80.9832 13.1789C82.0555 9.8034 83.8552 7.59084 86.1776 6.24365C87.4721 5.49275 88.8187 5.12131 90.2156 5.00729C92.1265 4.85133 93.9874 5.13871 95.7431 6.24831C98.6234 8.06866 100.378 11.249 100.83 15.8646C100.976 17.3591 100.947 17.3652 99.923 17.3652C97.8038 17.3652 95.6846 17.3654 93.5653 17.3652C92.9305 17.3651 92.9305 17.3646 92.8447 16.4362C92.7255 15.1466 92.1219 14.1338 91.2935 13.7922C90.4758 13.455 89.8174 13.8537 89.2944 14.7534C88.7804 15.6377 88.7216 16.6606 89.0156 17.7255C89.3118 18.7983 89.9103 19.3524 90.6304 19.647C92.1185 20.256 93.6116 20.8386 95.1028 21.4312C96.927 22.1562 98.5842 23.3492 99.923 25.3404C100.373 26.01 100.71 26.8435 101.193 27.7846C100.96 23.514 101.397 19.5611 102.77 15.9115C104.144 12.2593 106.106 9.48275 108.612 7.51514C111.123 5.54224 113.816 4.75881 116.629 5.051C122.712 5.6827 128.355 11.8414 129.81 21.7894C129.823 21.561 129.848 21.3325 129.848 21.104C129.851 16.2739 129.85 11.4438 129.85 6.61371C129.85 5.75065 129.851 5.74896 130.426 5.7488C132.844 5.74811 135.262 5.74806 137.68 5.74884C138.244 5.74902 138.245 5.75096 138.245 6.56897C138.246 14.0736 138.23 21.5784 138.257 29.0828C138.263 30.9461 138.636 32.648 139.676 33.91C140.46 34.8615 141.359 35.2917 142.351 35.1969C144.073 35.0324 145.4 33.8782 146.199 31.5813C146.562 30.5402 146.724 29.4125 146.724 28.2359C146.722 21.0706 146.723 13.9053 146.723 6.73992C146.723 5.74882 146.723 5.74857 147.417 5.74853C149.767 5.74841 152.117 5.74834 154.467 5.74858C155.118 5.74864 155.119 5.74916 155.119 6.68227C155.119 15.2048 155.119 23.7274 155.119 32.2499C155.119 33.1725 155.119 33.1734 155.736 33.1735C158.155 33.1739 160.573 33.1897 162.991 33.158C163.396 33.1526 163.552 33.3621 163.595 33.9076C163.802 36.5703 166.131 37.8919 167.511 36.2949C168.715 34.9018 168.443 32.6473 167.498 31.6223C166.68 30.7345 165.677 30.5211 164.717 30.1869C162.999 29.5895 161.282 28.9945 159.701 27.7919C157.556 26.1607 156.25 23.5836 155.878 20.0853C155.456 16.1106 156.212 12.643 158.141 9.74868C159.906 7.09951 162.097 5.78766 164.552 5.25565C166.43 4.84858 168.282 5.01469 170.105 5.75259C173.35 7.06674 175.842 10.7203 176.317 15.8008C176.352 16.1742 176.368 16.5514 176.393 16.9266C176.421 17.3366 176.299 17.4985 176.017 17.4899C175.406 17.4714 174.794 17.4849 174.183 17.485C172.471 17.4851 170.759 17.4852 169.048 17.4849C168.409 17.4848 168.409 17.4844 168.32 16.5652C168.186 15.1937 167.584 14.1915 166.703 13.8721C165.871 13.5705 165.01 14.1087 164.581 15.1981C164.157 16.2771 164.274 17.7466 164.834 18.6504C165.44 19.6265 166.28 19.8814 167.08 20.2217C168.602 20.8693 170.157 21.3616 171.664 22.0765C173.371 22.8865 174.855 24.2785 175.965 26.3979C176.622 27.6527 176.977 29.1135 177.12 30.6811C177.318 32.8489 177.255 35.0031 176.654 37.016C176.305 38.1857 175.85 39.3386 175.293 40.3141C173.711 43.0858 171.635 44.7015 169.238 45.4359C167.648 45.9231 166.043 45.9753 164.425 45.7706C162.962 45.5852 161.555 45.0754 160.256 44.097C159.479 43.5126 158.786 42.6907 158.034 41.9459ZM26.6556 29.7594C27.6601 27.8721 28.0631 25.7054 27.8441 23.3655C27.6205 20.9764 26.7839 19.0439 25.4594 17.5994C24.1108 16.1285 22.572 15.5619 20.9281 15.8464C19.4315 16.1054 18.1346 17.0753 17.112 18.7512C15.8443 20.8286 15.2629 23.2499 15.6034 26.0113C16.1356 30.3281 18.5413 33.1373 21.3739 33.3836C23.5125 33.5697 25.2754 32.3027 26.6556 29.7594ZM117.485 16.0542C113.785 14.5192 110.262 18.1283 109.662 20.7926C113.644 20.7926 117.623 20.7926 121.682 20.7926C120.705 18.3414 119.31 16.8666 117.485 16.0542ZM45.9331 20.8383C49.4976 20.8383 53.062 20.8383 56.6485 20.8383C55.8373 18.1215 53.2798 15.4694 50.2886 15.6964C47.7597 15.8884 45.277 18.3928 44.6676 20.8383C45.0749 20.8383 45.4634 20.8383 45.9331 20.8383Z" fill="#E3E4E6"/>
<path d="M180.002 42.8479C179.222 41.5578 178.834 40.0733 178.759 38.4083C178.676 36.5387 178.904 34.7771 179.65 33.2116C180.732 30.9381 182.2 29.7569 184.107 29.6875C185.714 29.629 187.062 30.4502 188.164 32.1063C188.959 33.3015 189.426 34.7647 189.609 36.4459C189.858 38.726 189.497 40.7889 188.58 42.5883C187.748 44.2197 186.604 45.2638 185.212 45.6261C183.71 46.0168 182.319 45.5858 181.071 44.305C180.684 43.908 180.37 43.3585 180.002 42.8479Z" fill="#E3E4E6"/>
</svg>
