<svg width="55" height="19" viewBox="0 0 55 19" fill="none" xmlns="http://www.w3.org/2000/svg">
<path d="M43.9289 18.5C43.1956 18.5 42.6039 18.2857 42.1539 17.8571C41.7206 17.4114 41.5039 16.8286 41.5039 16.1086V0.5H44.9539V15.4143H54.4539V18.5H43.9289Z" fill="white"/>
<path d="M34.6982 0.5H38.1482V18.5H34.6982V0.5Z" fill="white"/>
<path d="M16.3086 0.5H19.7586V7.93143H27.9086V0.5H31.3586V18.5H27.9086V11.0171H19.7586V18.5H16.3086V0.5Z" fill="white"/>
<path d="M0 0.5H9.225C10.2417 0.5 11.1417 0.705714 11.925 1.11714C12.7083 1.51143 13.3167 2.08571 13.75 2.84C14.1833 3.57714 14.4 4.42571 14.4 5.38571V7.77714C14.4 8.77143 14.175 9.65429 13.725 10.4257C13.275 11.18 12.6417 11.7714 11.825 12.2C11.025 12.6114 10.0917 12.8171 9.025 12.8171H3.45V18.5H0V0.5ZM8.975 9.73143C9.55833 9.73143 10.0333 9.54286 10.4 9.16572C10.7667 8.77143 10.95 8.25714 10.95 7.62286V5.54C10.95 4.94 10.7833 4.46857 10.45 4.12572C10.1333 3.76571 9.70833 3.58571 9.175 3.58571H3.45V9.73143H8.975Z" fill="white"/>
</svg>
