<svg width="73" height="73" viewBox="0 0 73 73" fill="none" xmlns="http://www.w3.org/2000/svg">
<path d="M71.4763 18.1721L54.8317 1.52741C54.3475 1.04316 53.7726 0.659038 53.14 0.396963C52.5073 0.134889 51.8292 0 51.1444 0C50.4597 0 49.7816 0.134889 49.1489 0.396963C48.5163 0.659038 47.9414 1.04316 47.4572 1.52741L1.52704 47.4539C1.04187 47.9373 0.657168 48.5121 0.395089 49.1449C0.13301 49.7777 -0.00126212 50.4561 8.94033e-06 51.1411V67.7857C8.94033e-06 69.1686 0.549367 70.4949 1.52723 71.4728C2.50509 72.4506 3.83136 73 5.21427 73H67.7854C68.3781 73 68.9465 72.7646 69.3655 72.3455C69.7846 71.9264 70.0201 71.358 70.0201 70.7653C70.0201 70.1726 69.7846 69.6042 69.3655 69.1852C68.9465 68.7661 68.3781 68.5306 67.7854 68.5306H28.4885L71.4763 25.5465C71.9606 25.0623 72.3447 24.4875 72.6068 23.8548C72.8689 23.2222 73.0037 22.5441 73.0037 21.8593C73.0037 21.1745 72.8689 20.4964 72.6068 19.8638C72.3447 19.2311 71.9606 18.6563 71.4763 18.1721ZM15.8253 60.3368L48.4181 27.7402L55.6883 35.0104L23.0917 67.6032L15.8253 60.3368ZM12.6632 57.1785L5.39677 49.9083L37.9896 17.3154L45.2598 24.5819L12.6632 57.1785ZM4.46937 67.7857V55.3013L17.6987 68.5306H5.21427C5.01671 68.5306 4.82724 68.4522 4.68755 68.3125C4.54785 68.1728 4.46937 67.9833 4.46937 67.7857ZM68.3143 22.3844L58.8466 31.8521L41.1517 14.1534L50.6156 4.68949C50.6847 4.62023 50.7669 4.56528 50.8573 4.5278C50.9478 4.49031 51.0447 4.47102 51.1426 4.47102C51.2405 4.47102 51.3374 4.49031 51.4278 4.5278C51.5183 4.56528 51.6004 4.62023 51.6696 4.68949L68.3143 21.3304C68.3835 21.3996 68.4385 21.4818 68.4759 21.5722C68.5134 21.6626 68.5327 21.7595 68.5327 21.8574C68.5327 21.9553 68.5134 22.0523 68.4759 22.1427C68.4385 22.2331 68.3835 22.3153 68.3143 22.3844Z" fill="url(#paint0_linear_2234_2271)"/>
<defs>
<linearGradient id="paint0_linear_2234_2271" x1="36.5019" y1="0" x2="36.5019" y2="73" gradientUnits="userSpaceOnUse">
<stop stop-color="#B16CEA"/>
<stop offset="0.3" stop-color="#FF5E69"/>
<stop offset="0.67" stop-color="#FF8A56"/>
<stop offset="1" stop-color="#FFA84B"/>
</linearGradient>
</defs>
</svg>
