<svg width="81" height="79" viewBox="0 0 81 79" fill="none" xmlns="http://www.w3.org/2000/svg">
<path d="M80.7055 70.3889C80.6415 70.2005 79.0838 65.7133 76.6096 60.7686C72.8671 53.2908 69.0352 48.7259 64.8985 46.8139C64.8887 46.8096 57.3605 43.4475 57.3605 43.4475L54.0747 40.779L48.8762 45.758L52.0789 67.9729C52.09 68.0424 52.0717 68.1134 52.0287 68.1699L48.7472 72.4951C48.695 72.5643 48.6119 72.6047 48.523 72.6047C48.4341 72.6047 48.3508 72.5639 48.2988 72.4951L45.0173 68.1699C44.9745 68.1134 44.9563 68.0422 44.9671 67.9729L48.1611 45.8197L42.9003 40.7792L39.6142 43.4477C39.6142 43.4477 25.063 49.8583 19.9488 51.2456C20.7198 48.219 21.877 44.3634 23.1413 40.7298C24.1511 37.8265 22.5274 34.6833 19.512 33.7108C16.498 32.7371 13.2333 34.3002 12.2231 37.2035C12.1616 37.38 10.7045 41.5765 9.42729 46.1218C7.00047 54.7631 6.85403 58.3889 8.83007 61.044C10.0302 62.6585 11.895 63.5884 13.9423 63.5965H13.9838C17.3472 63.5965 23.6852 61.9925 30.2636 59.5849L30.2682 79.0001H66.7044L66.7087 66.549C67.9196 69.0699 68.8448 71.3893 69.3491 72.7196C69.1301 73.9102 68.6145 76.1109 67.4708 79.0001H79.6299C80.7457 75.3191 80.9562 72.9563 80.9865 72.5074C81.0371 71.7903 80.9412 71.0707 80.7055 70.3889Z" fill="url('#paint0_linear_2234_1959')"></path>
<path d="M48.4868 40.5563C56.9104 40.5563 63.1955 32.999 63.3382 20.3243C63.4308 11.5296 59.081 6.26709 48.4868 6.26709C37.893 6.26709 33.5442 11.5296 33.6382 20.3243C33.7795 32.999 40.0638 40.5563 48.4868 40.5563Z" fill="url('#paint1_linear_2234_1959')"></path>
<path d="M10.373 19.62C11.19 20.7728 12.0354 21.9637 12.0873 23.5772L12.1585 26.7289C12.1585 27.1996 12.5542 27.5813 13.0412 27.5813H13.5814C13.7484 28.4774 14.5615 29.1569 15.5399 29.1569C16.5179 29.1569 17.3299 28.4774 17.4968 27.5813H18.0378C18.5248 27.5813 18.9212 27.1996 18.9212 26.7289L18.9958 23.5783C19.0473 21.9674 19.8915 20.7743 20.7084 19.6207C21.685 18.2388 22.6978 16.809 22.6981 14.2892C22.6981 10.6768 19.4871 7.73853 15.5397 7.73853C11.5919 7.73853 8.38086 10.6766 8.38086 14.2892C8.38086 16.8078 9.39368 18.2373 10.373 19.62ZM15.5393 21.4072L14.4413 15.3916C14.4162 15.2101 14.5206 15.0694 14.5674 15.0166C14.6553 14.9184 14.772 14.8567 14.8664 14.8567C14.9863 14.8567 15.0787 14.9425 15.1232 14.9947C15.2257 15.114 15.3773 15.1842 15.5393 15.1842C15.7006 15.1842 15.8514 15.114 15.9546 14.9947C15.9994 14.9425 16.0904 14.8567 16.2098 14.8567C16.3152 14.8567 16.4342 14.9164 16.5216 15.0143C16.5771 15.0755 16.6625 15.2062 16.6369 15.3909L15.5393 21.4072ZM15.5397 9.44194C18.5123 9.44194 20.9289 11.6168 20.9289 14.2894C20.9289 16.2836 20.1495 17.3849 19.2455 18.6638C18.4949 19.7252 17.5842 21.0091 17.308 22.7018L16.3985 22.7016L17.6996 15.5636C17.7001 15.5595 17.7009 15.5565 17.7014 15.5528C17.7699 15.1145 17.6387 14.6727 17.3402 14.3373C17.0503 14.0118 16.6282 13.8182 16.2098 13.8182C15.9747 13.8182 15.7452 13.8789 15.5393 13.9929C15.3312 13.8789 15.1017 13.8182 14.8664 13.8182C14.4519 13.8182 14.045 14.0077 13.7504 14.3384C13.4457 14.6795 13.3093 15.1222 13.3757 15.5513C13.3769 15.5551 13.3776 15.5592 13.3782 15.5635L14.6785 22.7005L13.7745 22.7004C13.4985 21.0068 12.5854 19.7214 11.8327 18.6602C10.9304 17.3828 10.1488 16.2815 10.1488 14.289C10.1488 11.6168 12.5677 9.44194 15.5397 9.44194Z" fill="url('#paint2_linear_2234_1959')"></path>
<path d="M15.5402 6.1759C16.0035 6.1759 16.379 5.81415 16.379 5.36788L16.3788 0.808204C16.3788 0.361757 16.0035 0 15.5398 0C15.0764 0 14.7012 0.361936 14.7012 0.808204V5.36788C14.7012 5.59074 14.7948 5.79293 14.9466 5.93913C15.0985 6.08533 15.3076 6.1759 15.5402 6.1759Z" fill="url('#paint3_linear_2234_1959')"></path>
<path d="M22.0915 8.47252C22.3311 8.47252 22.5686 8.37445 22.7347 8.18386L25.7778 4.69073C26.0758 4.34895 26.0295 3.83903 25.6745 3.55215C25.3194 3.26546 24.7896 3.31021 24.4924 3.652L21.4493 7.14512C21.1513 7.48691 21.1977 7.99665 21.5528 8.28352C21.7096 8.41065 21.9009 8.47252 22.0915 8.47252Z" fill="url('#paint4_linear_2234_1959')"></path>
<path d="M24.7512 13.6204C24.8232 14.0124 25.1772 14.2882 25.5765 14.2882C25.625 14.2882 25.6739 14.2843 25.7233 14.2758L30.3857 13.4836C30.8423 13.406 31.1468 12.9869 31.0666 12.5474C30.9859 12.1079 30.5499 11.8148 30.0943 11.892L25.4319 12.684C24.9754 12.7615 24.6705 13.1807 24.7512 13.6204Z" fill="url('#paint5_linear_2234_1959')"></path>
<path d="M24.7859 19.3929C24.3838 19.1695 23.8712 19.3023 23.6398 19.6887C23.4082 20.0751 23.5458 20.5693 23.9466 20.7923L28.0471 23.0722C28.1797 23.1456 28.3237 23.1806 28.4659 23.1806C28.7556 23.1806 29.0381 23.0358 29.1936 22.7762C29.425 22.3898 29.2877 21.8956 28.8863 21.6724L24.7859 19.3929Z" fill="url('#paint6_linear_2234_1959')"></path>
<path d="M7.439 19.6887C7.2074 19.3021 6.69442 19.1696 6.29288 19.3929L2.19307 21.6727C1.79172 21.8959 1.65436 22.3902 1.88595 22.7767C2.04108 23.0359 2.32359 23.1809 2.6135 23.1809C2.75586 23.1809 2.90026 23.1459 3.03262 23.0725L7.13224 20.7926C7.53304 20.5694 7.67096 20.075 7.439 19.6887Z" fill="url('#paint7_linear_2234_1959')"></path>
<path d="M5.50259 14.288C5.90228 14.288 6.25587 14.012 6.32788 13.6199C6.4086 13.1804 6.10351 12.7614 5.64699 12.6839L0.984585 11.8923C0.528248 11.8149 0.0933869 12.1084 0.012857 12.5478C-0.0674878 12.9873 0.237045 13.4065 0.693936 13.4841L5.35579 14.2755C5.40521 14.2839 5.45409 14.288 5.50259 14.288Z" fill="url('#paint8_linear_2234_1959')"></path>
<path d="M8.34497 8.18366C8.51084 8.3739 8.74854 8.47232 8.98809 8.47232H8.98865C9.17896 8.47232 9.37038 8.41027 9.52755 8.28333C9.88225 7.99628 9.92872 7.48672 9.63122 7.14475L6.58775 3.6518C6.28969 3.31019 5.76042 3.26544 5.40535 3.55232C5.22781 3.69584 5.12766 3.895 5.10877 4.10128C5.08971 4.30721 5.15302 4.52009 5.30168 4.69108L8.34497 8.18366Z" fill="url('#paint9_linear_2234_1959')"></path>
<defs>
<linearGradient id="paint0_linear_2234_1959" x1="44.2327" y1="33.4214" x2="44.2327" y2="79.0001" gradientUnits="userSpaceOnUse">
<stop stop-color="#B16CEA"></stop>
<stop offset="0.3" stop-color="#FF5E69"></stop>
<stop offset="0.67" stop-color="#FF8A56"></stop>
<stop offset="1" stop-color="#FFA84B"></stop>
</linearGradient>
<linearGradient id="paint1_linear_2234_1959" x1="48.4882" y1="6.26709" x2="48.4882" y2="40.5563" gradientUnits="userSpaceOnUse">
<stop stop-color="#B16CEA"></stop>
<stop offset="0.3" stop-color="#FF5E69"></stop>
<stop offset="0.67" stop-color="#FF8A56"></stop>
<stop offset="1" stop-color="#FFA84B"></stop>
</linearGradient>
<linearGradient id="paint2_linear_2234_1959" x1="15.5395" y1="7.73853" x2="15.5395" y2="29.1569" gradientUnits="userSpaceOnUse">
<stop stop-color="#B16CEA"></stop>
<stop offset="0.3" stop-color="#FF5E69"></stop>
<stop offset="0.67" stop-color="#FF8A56"></stop>
<stop offset="1" stop-color="#FFA84B"></stop>
</linearGradient>
<linearGradient id="paint3_linear_2234_1959" x1="15.5401" y1="0" x2="15.5401" y2="6.1759" gradientUnits="userSpaceOnUse">
<stop stop-color="#B16CEA"></stop>
<stop offset="0.3" stop-color="#FF5E69"></stop>
<stop offset="0.67" stop-color="#FF8A56"></stop>
<stop offset="1" stop-color="#FFA84B"></stop>
</linearGradient>
<linearGradient id="paint4_linear_2234_1959" x1="23.6136" y1="3.36328" x2="23.6136" y2="8.47252" gradientUnits="userSpaceOnUse">
<stop stop-color="#B16CEA"></stop>
<stop offset="0.3" stop-color="#FF5E69"></stop>
<stop offset="0.67" stop-color="#FF8A56"></stop>
<stop offset="1" stop-color="#FFA84B"></stop>
</linearGradient>
<linearGradient id="paint5_linear_2234_1959" x1="27.9089" y1="11.8796" x2="27.9089" y2="14.2882" gradientUnits="userSpaceOnUse">
<stop stop-color="#B16CEA"></stop>
<stop offset="0.3" stop-color="#FF5E69"></stop>
<stop offset="0.67" stop-color="#FF8A56"></stop>
<stop offset="1" stop-color="#FFA84B"></stop>
</linearGradient>
<linearGradient id="paint6_linear_2234_1959" x1="26.4167" y1="19.2844" x2="26.4167" y2="23.1806" gradientUnits="userSpaceOnUse">
<stop stop-color="#B16CEA"></stop>
<stop offset="0.3" stop-color="#FF5E69"></stop>
<stop offset="0.67" stop-color="#FF8A56"></stop>
<stop offset="1" stop-color="#FFA84B"></stop>
</linearGradient>
<linearGradient id="paint7_linear_2234_1959" x1="4.66254" y1="19.2844" x2="4.66254" y2="23.1809" gradientUnits="userSpaceOnUse">
<stop stop-color="#B16CEA"></stop>
<stop offset="0.3" stop-color="#FF5E69"></stop>
<stop offset="0.67" stop-color="#FF8A56"></stop>
<stop offset="1" stop-color="#FFA84B"></stop>
</linearGradient>
<linearGradient id="paint8_linear_2234_1959" x1="3.17042" y1="11.8799" x2="3.17042" y2="14.288" gradientUnits="userSpaceOnUse">
<stop stop-color="#B16CEA"></stop>
<stop offset="0.3" stop-color="#FF5E69"></stop>
<stop offset="0.67" stop-color="#FF8A56"></stop>
<stop offset="1" stop-color="#FFA84B"></stop>
</linearGradient>
<linearGradient id="paint9_linear_2234_1959" x1="7.46633" y1="3.36328" x2="7.46633" y2="8.47232" gradientUnits="userSpaceOnUse">
<stop stop-color="#B16CEA"></stop>
<stop offset="0.3" stop-color="#FF5E69"></stop>
<stop offset="0.67" stop-color="#FF8A56"></stop>
<stop offset="1" stop-color="#FFA84B"></stop>
</linearGradient>
</defs>
</svg>
