<svg width="73" height="74" viewBox="0 0 73 74" fill="none" xmlns="http://www.w3.org/2000/svg">
<path d="M72.9849 39.829C72.9533 39.9041 72.8998 39.9537 72.8932 40.0089C72.8224 40.6031 72.7704 41.1996 72.6916 41.7926C72.3975 44.0057 71.9023 46.1727 71.2056 48.295C70.6413 50.0139 69.9507 51.6786 69.1391 53.295C67.6027 56.3549 65.665 59.1356 63.349 61.6551C61.3497 63.8302 59.1194 65.7382 56.6588 67.3698C52.7129 69.9863 48.4182 71.7773 43.7763 72.7219C42.0534 73.0726 40.3134 73.295 38.5556 73.3867C36.4405 73.4969 34.3336 73.4401 32.2289 73.1958C28.6808 72.784 25.2689 71.8656 21.9954 70.4467C18.3252 68.8558 15.0052 66.7147 12.038 64.0265C8.73061 61.03 6.06153 57.5462 4.02269 53.5785C2.2199 50.0702 1.02605 46.365 0.450745 42.4621C0.362304 41.8622 0.291176 41.2595 0.221042 40.657C0.151809 40.0623 0.531058 39.5389 1.07492 39.4625C1.76997 39.3647 2.26235 39.6922 2.36698 40.3491C2.5439 41.4598 2.66538 42.5807 2.87968 43.6838C3.63281 47.5606 5.05289 51.1851 7.08269 54.572C8.2146 56.4606 9.53411 58.2091 10.984 59.8644C11.3056 60.2315 11.6342 60.3883 12.1403 60.3864C17.71 60.3651 23.2799 60.3729 28.8497 60.3734C29.3585 60.3734 29.7274 60.61 29.9038 61.0437C30.0792 61.4753 29.9788 61.9623 29.6476 62.2748C29.4241 62.4857 29.1565 62.5734 28.8502 62.5727C27.4557 62.5697 26.0613 62.5714 24.6668 62.5714C21.1238 62.5714 17.5809 62.5714 14.0379 62.5714C13.9529 62.5714 13.8679 62.5714 13.7828 62.5714C13.7775 62.5953 13.7723 62.6192 13.767 62.6431C20.562 68.4693 28.4209 71.4457 37.4016 71.221C45.6806 71.0139 52.9137 68.0481 59.1545 62.641C59.1492 62.6178 59.1439 62.5946 59.1386 62.5714C59.0535 62.5714 58.9683 62.5714 58.8831 62.5714C56.9859 62.5714 55.0888 62.572 53.1917 62.571C52.7273 62.5707 52.3727 62.3693 52.1785 61.9462C51.9879 61.531 52.03 61.1204 52.3215 60.7597C52.5503 60.4765 52.8627 60.3706 53.2253 60.3711C55.8846 60.3747 58.5438 60.3716 61.203 60.3763C61.3773 60.3766 61.4975 60.3321 61.6207 60.1989C63.9302 57.7021 65.8405 54.9313 67.3296 51.874C68.8801 48.6907 69.9115 45.3454 70.4149 41.8386C70.6511 40.1933 70.7741 38.5404 70.7611 36.8782C70.7351 33.5636 70.2738 30.3133 69.3182 27.1359C68.1617 23.2899 66.3832 19.7562 63.9879 16.5344C63.0594 15.2855 62.0461 14.1087 60.9571 12.9947C59.3377 11.3382 57.5701 9.86139 55.6554 8.56145C53.6865 7.22476 51.5956 6.11307 49.3929 5.21052C46.9314 4.20187 44.3856 3.48761 41.7571 3.09558C40.551 2.9157 39.3303 2.81609 38.1126 2.73638C35.9738 2.59639 33.8409 2.71893 31.7204 3.01924C28.1264 3.52825 24.6971 4.57806 21.4353 6.17706C18.7302 7.50317 16.2414 9.14978 13.9668 11.1256C11.3993 13.356 9.21454 15.9106 7.40735 18.7907C6.06388 20.9318 4.97119 23.1924 4.14161 25.5805C3.93332 26.1801 3.31125 26.4822 2.73467 26.2787C2.13874 26.0683 1.84428 25.4499 2.05751 24.8405C3.33062 21.2027 5.14515 17.8576 7.48502 14.7954C8.5343 13.4222 9.67132 12.1254 10.909 10.9218C13.4491 8.4516 16.278 6.37287 19.4156 4.71776C21.8676 3.42433 24.4299 2.41484 27.1082 1.70227C29.0835 1.17674 31.089 0.816597 33.1262 0.636534C33.3874 0.613453 33.6463 0.564907 33.8893 0.512107C35.5923 0.496056 37.3122 0.496056 39.0387 0.512537C39.1209 0.547882 39.1956 0.578206 39.2721 0.583938C41.2948 0.735515 43.2917 1.05477 45.2586 1.54523C48.3463 2.31518 51.2854 3.46747 54.073 5.00807C57.6128 6.9644 60.7453 9.43699 63.4696 12.4215C65.9433 15.1315 67.9667 18.1482 69.5354 21.4684C70.8818 24.3184 71.8548 27.2901 72.399 30.3937C72.6152 31.6273 72.7292 32.8787 72.8943 34.1214C72.9007 34.1699 72.9537 34.2122 72.9849 34.2574C72.9849 36.107 72.9849 37.9566 72.9849 39.829Z" fill="url('#paint0_linear_2234_2256')"></path>
<path d="M0.0126953 36.5181C0.0678812 36.4509 0.137229 36.4164 0.175975 36.3607C0.442658 35.9768 0.811 35.8148 1.26616 35.8789C1.73647 35.9451 2.06007 36.2189 2.16293 36.6822C2.26886 37.1594 2.26409 37.6354 1.87466 38.0164C1.38985 38.4908 0.587646 38.4151 0.198284 37.8581C0.143874 37.7803 0.0878364 37.7036 0.0226239 37.6446C0.0126958 37.2888 0.0126958 36.9149 0.0126953 36.5181Z" fill="url('#paint1_linear_2234_2256')"></path>
<path d="M30.5667 39.4244C30.2851 40.7928 30.0099 42.1416 29.7223 43.4876C29.6883 43.6465 29.7243 43.7388 29.8336 43.8463C30.5733 44.5739 31.3106 45.304 32.0412 46.0407C33.1079 47.1162 34.1682 48.198 35.2316 49.2768C35.2654 49.3111 35.3028 49.3418 35.367 49.4C35.3746 49.307 35.3848 49.2405 35.3848 49.1741C35.3855 42.55 35.386 35.926 35.381 29.302C35.3809 29.1914 35.3385 29.0627 35.2737 28.9727C32.8554 25.6136 30.4321 22.2582 28.0099 18.902C27.4979 18.1926 26.9858 17.4832 26.4776 16.7711C26.0828 16.2179 26.1789 15.5271 26.6962 15.1553C27.1928 14.7983 27.8849 14.934 28.2787 15.4773C30.3175 18.291 32.3536 21.1066 34.3905 23.9217C35.041 24.8205 35.6912 25.7196 36.3417 26.6184C36.3689 26.6559 36.3988 26.6914 36.4451 26.7504C36.7259 26.3217 36.9967 25.9113 37.2645 25.499C38.9942 22.8354 40.7223 20.1708 42.4537 17.5083C42.7301 17.0833 43.1264 16.8715 43.6342 16.9579C44.0935 17.0361 44.3793 17.3384 44.4987 17.7808C44.587 18.1079 44.5246 18.4172 44.3335 18.7069C43.4904 19.9852 42.654 21.268 41.8146 22.5488C40.4289 24.6632 39.0417 26.7765 37.6604 28.8938C37.5987 28.9884 37.5597 29.1169 37.5596 29.2297C37.5548 34.6781 37.5555 40.1265 37.5555 45.5749C37.5555 45.6392 37.5555 45.7035 37.5555 45.8262C37.6526 45.7588 37.715 45.7194 37.7733 45.6745C39.6912 44.1955 41.61 42.7176 43.5217 41.2305C43.5968 41.172 43.6363 41.0249 43.6366 40.919C43.6426 37.9678 43.6401 35.0166 43.6423 32.0654C43.6429 31.2185 44.4169 30.7015 45.1933 31.0225C45.5933 31.1879 45.8396 31.5844 45.8398 32.0731C45.8406 34.4163 45.8402 36.7594 45.8402 39.1025C45.8402 39.1911 45.8402 39.2798 45.8402 39.415C45.9426 39.3407 46.0179 39.2894 46.0897 39.2336C49.1729 36.8391 52.262 34.4523 55.3337 32.0433C56.0224 31.5032 56.7877 31.7275 57.104 32.3436C57.3527 32.8281 57.2366 33.3623 56.7894 33.7093C55.497 34.7123 54.2021 35.7121 52.9078 36.7126C49.4728 39.3679 46.0374 42.0226 42.6025 44.6781C40.994 45.9215 39.3886 47.169 37.7752 48.4059C37.6081 48.534 37.5505 48.6633 37.5509 48.8696C37.557 52.5992 37.5553 56.3287 37.5553 60.0583C37.5553 60.1625 37.5553 60.2668 37.5553 60.4117C37.6659 60.4117 37.7586 60.4117 37.8512 60.4117C39.6673 60.4117 41.4835 60.4104 43.2996 60.4123C43.9521 60.4131 44.3991 60.7811 44.4763 61.3711C44.5644 62.0444 44.0788 62.61 43.3975 62.6125C42.1489 62.6172 40.9003 62.6139 39.6517 62.6139C37.3735 62.6139 35.0952 62.6151 32.8169 62.613C32.2526 62.6125 31.8026 62.2284 31.7293 61.6971C31.6493 61.1172 31.958 60.6176 32.5076 60.4612C32.645 60.4221 32.7948 60.4145 32.939 60.4138C33.7411 60.4095 34.5433 60.4117 35.3723 60.4117C35.3772 60.3208 35.385 60.2436 35.385 60.1664C35.3857 57.7016 35.3877 55.2369 35.3791 52.7721C35.3787 52.6529 35.3144 52.5045 35.2299 52.4192C33.6497 50.8245 32.0607 49.2387 30.4764 47.6481C29.8818 47.0512 29.2907 46.4508 28.7067 45.8436C28.5825 45.7144 28.4553 45.6722 28.2809 45.6726C25.6135 45.6773 22.9461 45.6754 20.2786 45.6764C19.9618 45.6766 19.6663 45.6155 19.4203 45.4011C19.0662 45.0925 18.9524 44.5942 19.1281 44.1338C19.2797 43.7362 19.6803 43.4683 20.1394 43.468C22.1015 43.4664 24.0636 43.4673 26.0257 43.4673C26.1198 43.4673 26.2139 43.4673 26.3613 43.4673C26.2736 43.3702 26.2246 43.3112 26.1708 43.2571C24.9071 41.9883 23.6398 40.7231 22.3796 39.451C21.0626 38.1215 19.7531 36.7846 18.4385 35.4527C17.9436 34.9512 17.444 34.4545 16.9463 33.9558C16.5538 33.5626 16.5164 32.9517 16.859 32.521C17.231 32.0531 17.8219 31.9464 18.3093 32.2675C18.423 32.3425 18.5245 32.4394 18.6213 32.5364C20.5734 34.493 22.5244 36.4507 24.4749 38.4089C25.5214 39.4596 26.5664 40.5117 27.6126 41.5628C27.6739 41.6244 27.7391 41.6821 27.8313 41.7687C27.9522 41.1841 28.0665 40.6332 28.1799 40.0821C28.4376 38.829 28.6906 37.5749 28.9541 36.323C29.0917 35.6691 29.6522 35.3004 30.2886 35.4265C30.8642 35.5406 31.2431 36.1129 31.1228 36.7398C30.952 37.6305 30.7551 38.5161 30.5667 39.4244Z" fill="url('#paint2_linear_2234_2256')"></path>
<path d="M0.768094 34.148C0.372838 33.9227 0.191384 33.5807 0.252978 33.1638C0.461951 31.7491 0.675194 30.3342 0.932203 28.9278C1.08032 28.1172 2.03605 27.7896 2.68249 28.2935C3.05704 28.5855 3.1668 28.987 3.07845 29.4446C2.92836 30.222 2.76312 30.9966 2.62451 31.776C2.54394 32.229 2.49275 32.6881 2.44614 33.1462C2.35606 34.0315 1.60846 34.4905 0.768094 34.148Z" fill="url('#paint3_linear_2234_2256')"></path>
<path d="M46.4739 60.6225C46.6942 60.4324 46.9374 60.3701 47.2063 60.3711C48.0641 60.3742 48.922 60.371 49.7798 60.3727C50.4469 60.374 50.9064 60.8252 50.9058 61.4736C50.9053 62.1191 50.4429 62.5687 49.7728 62.5702C48.9312 62.5721 48.0895 62.571 47.2478 62.5705C46.7295 62.5702 46.3486 62.3309 46.1702 61.8957C45.9885 61.4523 46.0912 61.0052 46.4739 60.6225Z" fill="url('#paint4_linear_2234_2256')"></path>
<defs>
<linearGradient id="paint0_linear_2234_2256" x1="36.5989" y1="0.500122" x2="36.5989" y2="73.4405" gradientUnits="userSpaceOnUse">
<stop stop-color="#B16CEA"></stop>
<stop offset="0.3" stop-color="#FF5E69"></stop>
<stop offset="0.67" stop-color="#FF8A56"></stop>
<stop offset="1" stop-color="#FFA84B"></stop>
</linearGradient>
<linearGradient id="paint1_linear_2234_2256" x1="1.11726" y1="35.8652" x2="1.11726" y2="38.329" gradientUnits="userSpaceOnUse">
<stop stop-color="#B16CEA"></stop>
<stop offset="0.3" stop-color="#FF5E69"></stop>
<stop offset="0.67" stop-color="#FF8A56"></stop>
<stop offset="1" stop-color="#FFA84B"></stop>
</linearGradient>
<linearGradient id="paint2_linear_2234_2256" x1="36.9288" y1="14.957" x2="36.9288" y2="62.6151" gradientUnits="userSpaceOnUse">
<stop stop-color="#B16CEA"></stop>
<stop offset="0.3" stop-color="#FF5E69"></stop>
<stop offset="0.67" stop-color="#FF8A56"></stop>
<stop offset="1" stop-color="#FFA84B"></stop>
</linearGradient>
<linearGradient id="paint3_linear_2234_2256" x1="1.67425" y1="28.0537" x2="1.67425" y2="34.2617" gradientUnits="userSpaceOnUse">
<stop stop-color="#B16CEA"></stop>
<stop offset="0.3" stop-color="#FF5E69"></stop>
<stop offset="0.67" stop-color="#FF8A56"></stop>
<stop offset="1" stop-color="#FFA84B"></stop>
</linearGradient>
<linearGradient id="paint4_linear_2234_2256" x1="48.4944" y1="60.3711" x2="48.4944" y2="62.5713" gradientUnits="userSpaceOnUse">
<stop stop-color="#B16CEA"></stop>
<stop offset="0.3" stop-color="#FF5E69"></stop>
<stop offset="0.67" stop-color="#FF8A56"></stop>
<stop offset="1" stop-color="#FFA84B"></stop>
</linearGradient>
</defs>
</svg>
