<svg width="37" height="34" viewBox="0 0 37 34" fill="none" xmlns="http://www.w3.org/2000/svg">
<path d="M15.9307 1.47582L15.9307 7.48307C15.9307 8.29779 15.2519 8.95792 14.4146 8.95792C11.4271 8.95792 9.80196 11.9393 9.57673 17.8235H14.4146C15.2519 17.8235 15.9307 18.4842 15.9307 19.2986L15.9307 31.9827C15.9307 32.797 15.2519 33.4572 14.4146 33.4572H1.51581C0.678146 33.4572 0 32.7965 0 31.9827L0 19.2986C0 16.4779 0.291906 13.8893 0.867345 11.6041C1.45752 9.26091 2.36344 7.21215 3.55916 5.51455C4.78953 3.76992 6.32855 2.40089 8.13384 1.44715C9.95131 0.487641 12.0648 0.000976562 14.4151 0.000976562C15.2519 0.000976562 15.9307 0.661104 15.9307 1.47582ZM35.4838 8.95802C36.3207 8.95802 37 8.29728 37 7.48318V1.47592C37 0.661207 36.3208 0.00107963 35.4838 0.00107963C33.1344 0.00107963 31.0206 0.487848 29.2038 1.44725C27.3982 2.40099 25.8583 3.77002 24.6277 5.51465C23.4324 7.21226 22.5265 9.26112 21.9362 11.6048C21.3611 13.8908 21.0692 16.4793 21.0692 19.2987V31.9828C21.0692 32.7971 21.7482 33.4573 22.5853 33.4573L35.4837 33.4573C36.3206 33.4573 36.9993 32.7966 36.9993 31.9828L36.9993 19.2986C36.9993 18.4843 36.3207 17.8235 35.4837 17.8235H30.7148C30.9366 11.9394 32.538 8.95802 35.4838 8.95802Z" fill="url('#paint0_linear_2283_477')"></path>
<defs>
<linearGradient id="paint0_linear_2283_477" x1="18.5" y1="0.000976562" x2="18.5" y2="33.4573" gradientUnits="userSpaceOnUse">
<stop stop-color="#B16CEA"></stop>
<stop offset="0.3" stop-color="#FF5E69"></stop>
<stop offset="0.67" stop-color="#FF8A56"></stop>
<stop offset="1" stop-color="#FFA84B"></stop>
</linearGradient>
</defs>
</svg>
