<svg width="78" height="74" viewBox="0 0 78 74" fill="none" xmlns="http://www.w3.org/2000/svg">
<path d="M68.2353 26.2344L66.9538 25.5201C65.8261 24.9394 64.8773 24.0632 64.2088 22.9852C64.1492 22.8906 64.0932 22.7891 63.9812 22.593C63.2267 21.3812 62.8603 19.9678 62.9308 18.542L62.9518 17.054C62.9938 14.6731 63.0148 13.4757 62.6787 12.4043C62.3815 11.4509 61.8837 10.5723 61.2187 9.82734C60.4694 8.98703 59.4295 8.38481 57.3462 7.18737L55.6166 6.1895C53.5438 4.99556 52.504 4.39684 51.4011 4.16926C50.4266 3.96752 49.4204 3.97587 48.4495 4.19377C47.3536 4.43886 46.3277 5.05508 44.2794 6.28054L44.2689 6.28754L43.0295 7.02631C42.8334 7.14535 42.7319 7.20137 42.6338 7.25739C41.6605 7.80009 40.5751 8.0977 39.4582 8.13272C39.3461 8.13972 39.2306 8.13972 39.003 8.13972L38.5478 8.13622C37.4305 8.10104 36.3379 7.79847 35.3617 7.25389C35.2636 7.20137 35.1691 7.14185 34.973 7.02281L33.723 6.27353C31.6608 5.03408 30.6279 4.41785 29.525 4.16926C28.5505 3.9509 27.5405 3.94373 26.5629 4.14825C25.4565 4.37934 24.4201 4.98156 22.3439 6.186L22.3334 6.1895L20.6247 7.18037L20.6072 7.19437C18.5485 8.38481 17.5156 8.98703 16.7733 9.82384C16.1118 10.5675 15.6165 11.4436 15.3203 12.3938C14.9877 13.4687 15.0052 14.6661 15.0472 17.061L15.0717 18.5456C15.0717 18.7731 15.0822 18.8852 15.0787 18.9937C15.0602 20.2657 14.6959 21.5088 14.0248 22.5895C13.9093 22.7856 13.8567 22.8836 13.7972 22.9747C13.2069 23.9276 12.3964 24.7249 11.4338 25.2995L11.0417 25.5201L9.77773 26.2204C7.66996 27.3863 6.61607 27.971 5.85279 28.8043C5.17417 29.539 4.6608 30.4105 4.34724 31.3603C3.99711 32.4352 3.99711 33.6361 4.00061 36.045L4.00761 38.0162C4.01111 40.4076 4.01811 41.6015 4.37174 42.6694C4.68401 43.6133 5.19366 44.4798 5.86679 45.2114C6.63008 46.0377 7.67346 46.6189 9.76373 47.7813L11.0172 48.4781C11.2308 48.5971 11.3393 48.6531 11.4408 48.7161C12.5381 49.3739 13.4341 50.3196 14.0318 51.4507L14.2664 51.8708C14.8578 52.9874 15.1361 54.2432 15.0717 55.5052L15.0472 56.9302C15.0052 59.3321 14.9877 60.5365 15.3238 61.6114C15.6214 62.5637 16.1186 63.4426 16.7838 64.1883C17.5331 65.0287 18.5765 65.6274 20.6562 66.8283L22.3859 67.8262C24.4621 69.0201 25.4985 69.6188 26.6014 69.8464C27.5759 70.0481 28.5821 70.0397 29.553 69.8219C30.6524 69.5768 31.6783 68.9606 33.7336 67.7281L34.973 66.9859C36.0406 66.2985 37.2752 65.9148 38.5443 65.876H39.4547C40.5681 65.911 41.6605 66.2156 42.6408 66.7583L42.9629 66.9509L44.2794 67.7422C46.3452 68.9816 47.3746 69.5978 48.4775 69.8429C49.4515 70.0634 50.4615 70.0729 51.4396 69.8709C52.5425 69.6398 53.5859 69.0341 55.6621 67.8297L57.3953 66.8248C59.454 65.6274 60.4869 65.0287 61.2292 64.1918C61.8944 63.4461 62.3846 62.5708 62.6822 61.6219C63.0148 60.554 62.9973 59.3671 62.9553 57.0072L62.9273 55.4666C62.8577 54.0432 63.2242 52.6323 63.9777 51.4226L64.2053 51.0375C64.7956 50.0846 65.6061 49.2873 66.5686 48.7127L66.9538 48.4991L66.9608 48.4956L68.2247 47.7953C70.3325 46.6259 71.3864 46.0447 72.1532 45.2114C72.8324 44.4761 73.3436 43.6008 73.6552 42.6554C74.0054 41.5875 74.0054 40.3901 73.9984 38.0092L73.9914 35.9995C73.9879 33.6081 73.9844 32.4107 73.6307 31.3428C73.3168 30.4 72.806 29.5347 72.1322 28.8043C71.3724 27.978 70.329 27.3968 68.2423 26.2379L68.2353 26.2344Z" stroke="url('#paint0_linear_2234_2241')" stroke-width="7.00258" stroke-linecap="round" stroke-linejoin="round"></path>
<path d="M24.9941 37.0092C24.9941 40.7236 26.4697 44.2858 29.0962 46.9123C31.7226 49.5388 35.2849 51.0143 38.9993 51.0143C42.7137 51.0143 46.276 49.5388 48.9024 46.9123C51.5289 44.2858 53.0044 40.7236 53.0044 37.0092C53.0044 33.2948 51.5289 29.7325 48.9024 27.106C46.276 24.4796 42.7137 23.004 38.9993 23.004C35.2849 23.004 31.7226 24.4796 29.0962 27.106C26.4697 29.7325 24.9941 33.2948 24.9941 37.0092Z" stroke="url('#paint1_linear_2234_2241')" stroke-width="7.00258" stroke-linecap="round" stroke-linejoin="round"></path>
<defs>
<linearGradient id="paint0_linear_2234_2241" x1="39" y1="4" x2="39" y2="70.0157" gradientUnits="userSpaceOnUse">
<stop stop-color="#B16CEA"></stop>
<stop offset="0.3" stop-color="#FF5E69"></stop>
<stop offset="0.67" stop-color="#FF8A56"></stop>
<stop offset="1" stop-color="#FFA84B"></stop>
</linearGradient>
<linearGradient id="paint1_linear_2234_2241" x1="38.9993" y1="23.004" x2="38.9993" y2="51.0143" gradientUnits="userSpaceOnUse">
<stop stop-color="#B16CEA"></stop>
<stop offset="0.3" stop-color="#FF5E69"></stop>
<stop offset="0.67" stop-color="#FF8A56"></stop>
<stop offset="1" stop-color="#FFA84B"></stop>
</linearGradient>
</defs>
</svg>
