<svg width="29" height="24" viewBox="0 0 29 24" fill="none" xmlns="http://www.w3.org/2000/svg">
<path d="M28.75 7.25104V18.6498C28.7501 19.812 28.3054 20.9302 27.5073 21.775C26.7091 22.6197 25.6179 23.127 24.4576 23.1928L24.2 23.1998H5.3C4.13781 23.1999 3.01964 22.7553 2.17488 21.9571C1.33011 21.1589 0.822798 20.0678 0.757 18.9074L0.75 18.6498V7.25104L14.2628 14.3294C14.4131 14.4082 14.5803 14.4493 14.75 14.4493C14.9197 14.4493 15.0869 14.4082 15.2372 14.3294L28.75 7.25104Z" fill="#E3E4E6"></path>
<path d="M5.30006 0.800049H24.2001C25.3279 0.799913 26.4155 1.21864 27.2521 1.97502C28.0887 2.7314 28.6145 3.77152 28.7277 4.89365L14.7501 12.2156L0.772461 4.89365C0.880994 3.81609 1.37033 2.81257 2.15251 2.0635C2.93469 1.31442 3.95841 0.868911 5.03966 0.807049L5.30006 0.800049H24.2001H5.30006Z" fill="#E3E4E6"></path>
</svg>
