<svg width="141" height="70" viewBox="0 0 141 70" fill="none" xmlns="http://www.w3.org/2000/svg">
<path d="M0.754883 9.18636C0.754883 4.13432 4.3344 0 10.0863 0C16.1421 0 19.3889 4.33728 19.3889 9.43191C19.3889 15.0344 15.2863 18.4305 10.1297 18.4305C4.51726 18.4305 0.754883 14.6024 0.754883 9.18636Z" fill="#E3E4E6"></path>
<path d="M0.805664 26.109C0.805664 25.249 1.28791 24.6274 2.25072 24.6274H17.9711C18.8016 24.6274 19.3506 25.2856 19.3506 26.0944V50.1931C19.3506 54.3018 21.6903 59.0804 28.9111 59.0804C35.9435 59.0804 39.5814 54.7049 39.5814 45.7715V43.8935L47.0476 58.1023L48.011 62.9188C48.011 62.9188 40.6857 70 27.4088 70C20.819 70 0.805664 68.919 0.805664 47.0243V26.109Z" fill="#E3E4E6"></path>
<path d="M48.0078 62.9097L55.474 43.6436L57.8824 41.2354V44.6069C57.8824 52.7164 61.8168 58.9557 71.9974 58.9557C81.2804 58.9557 87.8147 53.6973 87.8147 45.5373C87.8147 41.3896 85.8068 38.0986 85.8068 38.0986L96.3372 43.3562L97.2603 56.1666C97.2603 56.1666 90.2478 69.9187 70.4807 69.9187C55.0451 69.9187 48.0078 62.9097 48.0078 62.9097Z" fill="#E3E4E6"></path>
<path d="M48.0067 62.9062C48.0067 62.9062 39.5771 56.4649 39.5771 44.4206V9.92443C39.5771 7.15058 41.3672 4.74683 48.8302 4.74683C56.9862 4.74683 57.8812 7.92128 57.8812 10.3029V24.6148H72.3318C73.3745 24.6148 73.7769 25.2243 73.7769 26.1899V34.7295C73.7769 35.537 73.4474 36.1745 72.4996 36.1745H62.9389C60.4597 36.1745 57.8812 35.2112 57.8812 35.2112V40.991C57.8812 48.1976 56.0189 55.5589 48.0067 62.9062Z" fill="#E3E4E6"></path>
<path d="M97.2588 56.1596L99.5534 30.951L100.59 26.5643C100.59 26.5643 105.169 33.2405 116.836 54.7176C124.245 41.2468 128.97 25.1497 128.97 25.1497C129.302 24.0494 130.18 23.783 131.452 24.1182L139.45 26.5898C140.421 26.9363 140.948 27.3199 140.401 29.1253C133.749 48.483 123.332 64.451 123.332 64.451C121.326 67.4228 119.284 69.9458 112.515 69.9458C107.055 69.9458 105.153 68.0861 103.251 65.2477L97.2588 56.1596Z" fill="#E3E4E6"></path>
<path d="M97.2612 56.1669L84.7932 36.5223C84.0449 35.1222 83.4746 34.2731 83.4746 32.6103C83.4842 30.166 84.7544 28.3988 89.0611 25.7007C89.9918 25.0892 93.3459 23.7561 96.0636 23.7561C99.7286 23.7561 102.463 27.5491 102.463 35.4846C102.463 48.3966 97.2612 56.1669 97.2612 56.1669Z" fill="#E3E4E6"></path>
</svg>
