<svg width="96" height="73" viewBox="0 0 96 73" fill="none" xmlns="http://www.w3.org/2000/svg">
<path d="M81.3299 31.9892C81.0416 31.8975 80.7287 31.9241 80.46 32.0632C80.1913 32.2022 79.9889 32.4423 79.8972 32.7306C79.8056 33.0189 79.8322 33.3318 79.9713 33.6004C80.1103 33.8691 80.3504 34.0715 80.6387 34.1632C89.5537 37.0034 93.5299 41.2397 93.5299 47.9055C93.5299 53.8345 88.1211 58.4358 84.9 60.6532C84.7474 60.7579 84.6226 60.8982 84.5364 61.062C84.4501 61.2257 84.405 61.408 84.405 61.5931V70.3143C81.6659 69.2754 79.2191 67.5886 77.2738 65.3982C77.1419 65.2513 76.9744 65.1408 76.7874 65.0773C76.6005 65.0138 76.4003 64.9994 76.2062 65.0355C75.5561 65.1609 74.8922 65.3389 74.2193 65.5191C73.0558 65.8316 71.8559 66.1556 70.7176 66.1556C64.8594 66.1556 60.7577 64.8963 56.5648 61.8143C56.321 61.6349 56.0159 61.5598 55.7166 61.6053C55.4174 61.6509 55.1485 61.8135 54.9691 62.0573C54.7897 62.3011 54.7145 62.6062 54.7601 62.9055C54.8056 63.2047 54.9682 63.4736 55.212 63.653C59.8361 67.0521 64.3278 68.4368 70.7176 68.4368C72.157 68.4368 73.5075 68.0741 74.8124 67.7228C75.2184 67.611 75.6222 67.5015 76.0214 67.408C80.2851 71.9112 85.1076 72.9355 85.3175 72.9765C85.4831 73.011 85.6544 73.0077 85.8187 72.9671C85.983 72.9264 86.136 72.8493 86.2665 72.7416C86.3977 72.6349 86.5035 72.5003 86.5761 72.3476C86.6488 72.1949 86.6864 72.0278 86.6862 71.8587V62.1885C92.5763 57.9887 95.8111 52.9334 95.8111 47.9055C95.8111 40.1926 91.2099 35.135 81.3299 31.9892Z" fill="url('#paint0_linear_2234_2279')"></path>
<path d="M75.2807 30.797C75.2807 13.2404 59.271 0 38.0441 0C16.71 0 0 13.5301 0 30.8015C0 41.1562 7.32504 48.5748 13.6874 53.0643V68.2028C13.6886 68.3928 13.737 68.5795 13.8284 68.7461C13.9197 68.9128 14.0511 69.054 14.2106 69.1572C14.3701 69.2604 14.5529 69.3223 14.7423 69.3373C14.9317 69.3522 15.1219 69.3199 15.2957 69.243C15.6287 69.0947 23.4146 65.5565 30.0758 58.2724C32.9615 58.8085 36.226 59.3241 39.187 59.3241C60.7743 59.3241 75.2807 47.8585 75.2807 30.797ZM39.1847 57.0428C36.1963 57.0428 32.7996 56.4703 29.8705 55.9113C29.6763 55.8757 29.4763 55.8903 29.2895 55.9538C29.1026 56.0173 28.9351 56.1275 28.8028 56.2741C24.1263 61.5483 18.6308 64.8995 15.9686 66.3435V52.4689C15.9686 52.2839 15.9234 52.1016 15.8372 51.9378C15.751 51.7741 15.6262 51.6338 15.4736 51.529C9.45571 47.3886 2.28123 40.4353 2.28123 30.8015C2.28123 14.8076 17.9898 2.28126 38.0441 2.28126C57.973 2.28126 72.9994 14.5407 72.9994 30.797C72.9994 46.4966 59.4101 57.0428 39.1847 57.0428Z" fill="url('#paint1_linear_2234_2279')"></path>
<path d="M37.6405 26.2345C35.1243 26.2345 33.078 28.2808 33.078 30.797C33.078 33.3132 35.1243 35.3595 37.6405 35.3595C40.1567 35.3595 42.2029 33.3132 42.2029 30.797C42.2029 28.2808 40.1567 26.2345 37.6405 26.2345ZM37.6405 33.0783C37.0531 33.052 36.4985 32.8002 36.0921 32.3752C35.6858 31.9503 35.459 31.385 35.459 30.797C35.459 30.209 35.6858 29.6437 36.0921 29.2188C36.4985 28.7939 37.0531 28.542 37.6405 28.5158C38.2278 28.542 38.7824 28.7939 39.1888 29.2188C39.5951 29.6437 39.8219 30.209 39.8219 30.797C39.8219 31.385 39.5951 31.9503 39.1888 32.3752C38.7824 32.8002 38.2278 33.052 37.6405 33.0783ZM53.6091 26.2345C51.0929 26.2345 49.0466 28.2808 49.0466 30.797C49.0466 33.3132 51.0929 35.3595 53.6091 35.3595C56.1253 35.3595 58.1716 33.3132 58.1716 30.797C58.1716 28.2808 56.1253 26.2345 53.6091 26.2345ZM53.6091 33.0783C53.0217 33.052 52.4671 32.8002 52.0608 32.3752C51.6544 31.9503 51.4276 31.385 51.4276 30.797C51.4276 30.209 51.6544 29.6437 52.0608 29.2188C52.4671 28.7939 53.0217 28.542 53.6091 28.5158C54.1965 28.542 54.7511 28.7939 55.1574 29.2188C55.5638 29.6437 55.7906 30.209 55.7906 30.797C55.7906 31.385 55.5638 31.9503 55.1574 32.3752C54.7511 32.8002 54.1965 33.052 53.6091 33.0783ZM21.6718 26.4512C19.1556 26.4512 17.1094 28.4975 17.1094 31.0137C17.1094 33.53 19.1556 35.5762 21.6718 35.5762C24.188 35.5762 26.2343 33.53 26.2343 31.0137C26.2343 28.4975 24.188 26.4512 21.6718 26.4512ZM21.6718 33.295C21.0845 33.2687 20.5299 33.0169 20.1235 32.5919C19.7172 32.167 19.4904 31.6017 19.4904 31.0137C19.4904 30.4258 19.7172 29.8605 20.1235 29.4355C20.5299 29.0106 21.0845 28.7587 21.6718 28.7325C22.2592 28.7587 22.8138 29.0106 23.2202 29.4355C23.6265 29.8605 23.8533 30.4258 23.8533 31.0137C23.8533 31.6017 23.6265 32.167 23.2202 32.5919C22.8138 33.0169 22.2592 33.2687 21.6718 33.295Z" fill="url('#paint2_linear_2234_2279')"></path>
<defs>
<linearGradient id="paint0_linear_2234_2279" x1="75.2791" y1="31.9355" x2="75.2791" y2="73.0002" gradientUnits="userSpaceOnUse">
<stop stop-color="#B16CEA"></stop>
<stop offset="0.3" stop-color="#FF5E69"></stop>
<stop offset="0.67" stop-color="#FF8A56"></stop>
<stop offset="1" stop-color="#FFA84B"></stop>
</linearGradient>
<linearGradient id="paint1_linear_2234_2279" x1="37.6403" y1="0" x2="37.6403" y2="69.3408" gradientUnits="userSpaceOnUse">
<stop stop-color="#B16CEA"></stop>
<stop offset="0.3" stop-color="#FF5E69"></stop>
<stop offset="0.67" stop-color="#FF8A56"></stop>
<stop offset="1" stop-color="#FFA84B"></stop>
</linearGradient>
<linearGradient id="paint2_linear_2234_2279" x1="37.6405" y1="26.2345" x2="37.6405" y2="35.5762" gradientUnits="userSpaceOnUse">
<stop stop-color="#B16CEA"></stop>
<stop offset="0.3" stop-color="#FF5E69"></stop>
<stop offset="0.67" stop-color="#FF8A56"></stop>
<stop offset="1" stop-color="#FFA84B"></stop>
</linearGradient>
</defs>
</svg>
