<svg width="49" height="48" viewBox="0 0 49 48" fill="none" xmlns="http://www.w3.org/2000/svg">
<path fill-rule="evenodd" clip-rule="evenodd" d="M21.1504 19.7813H26.35V22.1123C27.099 20.7716 29.0198 19.5671 31.9052 19.5671C37.4366 19.5671 38.7498 22.2358 38.7498 27.1321V36.2003H33.1498V28.2472C33.1498 25.4588 32.4008 23.8864 30.494 23.8864C27.8494 23.8864 26.7504 25.5811 26.7504 28.246V36.2003H21.1504V19.7813Z" fill="#E3E4E6"></path>
<path fill-rule="evenodd" clip-rule="evenodd" d="M11.5479 35.9861H17.1479V19.5671H11.5479V35.9861Z" fill="#E3E4E6"></path>
<path fill-rule="evenodd" clip-rule="evenodd" d="M17.9502 14.213C17.9504 14.6354 17.8573 15.0537 17.6763 15.4435C17.4954 15.8333 17.2301 16.1868 16.896 16.4835C16.219 17.0891 15.3025 17.4281 14.348 17.426C13.3951 17.4254 12.4808 17.0873 11.8028 16.4848C11.4699 16.1871 11.2055 15.8331 11.0249 15.4433C10.8442 15.0535 10.7508 14.6354 10.75 14.213C10.75 13.36 11.128 12.5435 11.8042 11.9412C12.4816 11.3379 13.3963 10.9996 14.3494 11C15.3042 11 16.2198 11.3389 16.896 11.9412C17.5708 12.5435 17.9502 13.36 17.9502 14.213Z" fill="#E3E4E6"></path>
</svg>
