<svg width="81" height="19" viewBox="0 0 81 19" fill="none" xmlns="http://www.w3.org/2000/svg">
<path d="M70.0666 18.2989C69.3499 18.2989 68.7666 18.0811 68.3166 17.6453C67.8666 17.2096 67.6416 16.6397 67.6416 15.9358V0.701172H80.9916V3.71793H71.0916V7.79056H80.2416V10.8073H71.0916V15.2822H80.9916V18.2989H70.0666Z" fill="white"></path>
<path d="M55.3693 18.2989C54.636 18.2989 54.0443 18.0894 53.5943 17.6704C53.161 17.2347 52.9443 16.6649 52.9443 15.9609V0.701172H56.3943V15.2822H65.8943V18.2989H55.3693Z" fill="white"></path>
<path d="M41.0285 18.5C39.7118 18.5 38.5452 18.2235 37.5285 17.6704C36.5285 17.1006 35.7452 16.3128 35.1785 15.3073C34.6285 14.2849 34.3535 13.1034 34.3535 11.7626V7.23743C34.3535 5.89665 34.6285 4.72346 35.1785 3.71788C35.7452 2.69553 36.5285 1.90782 37.5285 1.35475C38.5452 0.784916 39.7118 0.5 41.0285 0.5H43.6785C44.9952 0.5 46.1535 0.784916 47.1535 1.35475C48.1702 1.90782 48.9535 2.69553 49.5035 3.71788C50.0702 4.72346 50.3535 5.89665 50.3535 7.23743V11.7626C50.3535 13.1034 50.0702 14.2849 49.5035 15.3073C48.9535 16.3128 48.1702 17.1006 47.1535 17.6704C46.1535 18.2235 44.9952 18.5 43.6785 18.5H41.0285ZM43.6785 15.433C44.6452 15.433 45.4202 15.081 46.0035 14.3771C46.6035 13.6732 46.9035 12.7514 46.9035 11.6117V7.38827C46.9035 6.2486 46.6035 5.32682 46.0035 4.6229C45.4202 3.91899 44.6452 3.56704 43.6785 3.56704H41.0285C40.0618 3.56704 39.2785 3.91899 38.6785 4.6229C38.0952 5.32682 37.8035 6.2486 37.8035 7.38827V11.6117C37.8035 12.7514 38.0952 13.6732 38.6785 14.3771C39.2785 15.081 40.0618 15.433 41.0285 15.433H43.6785Z" fill="white"></path>
<path d="M22.9377 18.5C21.621 18.5 20.4544 18.2235 19.4377 17.6704C18.4377 17.1006 17.6544 16.3128 17.0877 15.3073C16.5377 14.2849 16.2627 13.1034 16.2627 11.7626V7.23743C16.2627 5.89665 16.5377 4.72346 17.0877 3.71788C17.6544 2.69553 18.4377 1.90782 19.4377 1.35475C20.4544 0.784916 21.621 0.5 22.9377 0.5H25.5877C26.9044 0.5 28.0627 0.784916 29.0627 1.35475C30.0794 1.90782 30.8627 2.69553 31.4127 3.71788C31.9794 4.72346 32.2627 5.89665 32.2627 7.23743V11.7626C32.2627 13.1034 31.9794 14.2849 31.4127 15.3073C30.8627 16.3128 30.0794 17.1006 29.0627 17.6704C28.0627 18.2235 26.9044 18.5 25.5877 18.5H22.9377ZM25.5877 15.433C26.5544 15.433 27.3294 15.081 27.9127 14.3771C28.5127 13.6732 28.8127 12.7514 28.8127 11.6117V7.38827C28.8127 6.2486 28.5127 5.32682 27.9127 4.6229C27.3294 3.91899 26.5544 3.56704 25.5877 3.56704H22.9377C21.971 3.56704 21.1877 3.91899 20.5877 4.6229C20.0044 5.32682 19.7127 6.2486 19.7127 7.38827V11.6117C19.7127 12.7514 20.0044 13.6732 20.5877 14.3771C21.1877 15.081 21.971 15.433 22.9377 15.433H25.5877Z" fill="white"></path>
<path d="M0.454102 0.701172H9.6791C10.6958 0.701172 11.5958 0.902289 12.3791 1.30452C13.1624 1.69 13.7708 2.25145 14.2041 2.98888C14.6374 3.70955 14.8541 4.53916 14.8541 5.47771V7.8157C14.8541 8.78776 14.6291 9.65089 14.1791 10.4051C13.7291 11.1425 13.0958 11.7207 12.2791 12.1397C11.4791 12.542 10.5458 12.7431 9.4791 12.7431H3.9041V18.2989H0.454102V0.701172ZM9.4291 9.72631C10.0124 9.72631 10.4874 9.54195 10.8541 9.17324C11.2208 8.78776 11.4041 8.28497 11.4041 7.66486V5.62855C11.4041 5.04195 11.2374 4.58106 10.9041 4.24586C10.5874 3.89391 10.1624 3.71793 9.6291 3.71793H3.9041V9.72631H9.4291Z" fill="white"></path>
</svg>
