<svg width="94" height="87" viewBox="0 0 94 87" fill="none" xmlns="http://www.w3.org/2000/svg">
<path d="M46.7388 41.6995C53.7888 41.6995 59.2721 36.3828 59.2721 29.8578C59.2721 23.3328 53.5277 18.2578 46.4777 18.2578C39.4277 18.2578 33.9443 23.5745 33.9443 29.8578C33.9443 36.3828 39.6888 41.6995 46.7388 41.6995ZM46.4777 23.0911C46.7388 23.0911 46.7388 23.0911 46.4777 23.0911C50.6554 23.0911 54.0499 26.2328 54.0499 30.0995C54.0499 33.9661 50.6554 36.8661 46.4777 36.8661C42.2999 36.8661 39.1666 33.7245 39.1666 30.0995C39.1666 26.2328 42.561 23.0911 46.4777 23.0911Z" fill="url('#paint0_linear_2234_1966')"></path>
<path d="M85.3837 40.2496C80.4226 36.1412 73.8948 33.9662 67.1059 34.2079C66.3226 34.2079 65.8003 34.2079 65.017 34.2079C64.4948 36.1412 63.7114 37.8329 62.667 39.2829C64.2337 39.0412 65.5392 39.0412 67.1059 39.0412C72.067 38.7996 77.0281 40.2495 80.9448 42.9079V60.3079H86.167V40.9745L85.3837 40.2496Z" fill="url('#paint1_linear_2234_1966')"></path>
<path d="M61.0999 18.7413C62.4054 15.8413 66.061 14.3913 69.4554 15.5996C72.5888 16.808 74.1554 20.1913 72.8499 23.333C71.8054 25.508 69.4554 26.958 67.1054 26.958C66.5832 26.958 65.7999 26.958 65.2777 26.7163C65.5388 27.9246 65.5388 29.133 65.5388 30.0996C65.5388 30.583 65.5388 31.0663 65.5388 31.5496C66.061 31.5496 66.5832 31.7913 67.1054 31.7913C73.6332 31.7913 78.8554 26.958 78.8554 21.158C78.8554 15.1163 73.6332 10.283 67.3666 10.283C63.1888 10.283 59.5332 12.2163 57.4443 15.5996C58.7499 16.3246 60.0554 17.2913 61.0999 18.7413Z" fill="url('#paint2_linear_2234_1966')"></path>
<path d="M31.333 39.5246C30.2886 38.0746 29.5052 36.3829 28.983 34.4496C28.1997 34.4496 27.6775 34.4496 26.8941 34.4496C20.1052 34.2079 13.5775 36.3829 8.61634 40.2496L7.83301 40.9746V60.3079H13.0552V42.9079C17.233 40.2496 21.933 38.7996 26.8941 39.0413C28.4608 39.0413 30.0275 39.2829 31.333 39.5246Z" fill="url('#paint3_linear_2234_1966')"></path>
<path d="M26.8949 31.5495C27.4171 31.5495 27.9394 31.5495 28.4616 31.3078C28.4616 30.8245 28.4616 30.3412 28.4616 29.8578C28.4616 28.6495 28.4616 27.4412 28.7227 26.4745C28.2005 26.7162 27.4171 26.7162 26.8949 26.7162C23.5005 26.7162 20.6283 24.0578 20.6283 20.9162C20.6283 17.7745 23.5005 15.1162 26.8949 15.1162C29.506 15.1162 31.856 16.5662 32.9005 18.7412C33.9449 17.5328 35.5116 16.3245 36.8172 15.3578C33.4227 10.2828 26.3727 8.59117 20.8894 11.7328C15.406 14.8745 13.5783 21.3995 16.9727 26.4745C19.0616 29.6162 22.7171 31.5495 26.8949 31.5495Z" fill="url('#paint4_linear_2234_1966')"></path>
<path d="M68.1502 54.7496L67.628 54.0246C62.4058 48.7079 55.0947 45.5663 47.2613 45.8079C39.428 45.5663 31.8558 48.7079 26.6335 54.0246L26.1113 54.7496V73.1163C26.1113 75.2913 27.9391 77.2246 30.5502 77.2246H63.9724C66.3224 77.2246 68.4113 75.2913 68.4113 73.1163V54.7496H68.1502ZM62.928 72.3913H31.3335V56.4413C35.5113 52.5746 41.2558 50.6413 47.2613 50.6413C53.0058 50.3996 58.7502 52.5746 62.928 56.4413V72.3913Z" fill="url('#paint5_linear_2234_1966')"></path>
<defs>
<linearGradient id="paint0_linear_2234_1966" x1="46.6082" y1="18.2578" x2="46.6082" y2="41.6995" gradientUnits="userSpaceOnUse">
<stop stop-color="#B16CEA"></stop>
<stop offset="0.3" stop-color="#FF5E69"></stop>
<stop offset="0.67" stop-color="#FF8A56"></stop>
<stop offset="1" stop-color="#FFA84B"></stop>
</linearGradient>
<linearGradient id="paint1_linear_2234_1966" x1="74.417" y1="34.1897" x2="74.417" y2="60.3079" gradientUnits="userSpaceOnUse">
<stop stop-color="#B16CEA"></stop>
<stop offset="0.3" stop-color="#FF5E69"></stop>
<stop offset="0.67" stop-color="#FF8A56"></stop>
<stop offset="1" stop-color="#FFA84B"></stop>
</linearGradient>
<linearGradient id="paint2_linear_2234_1966" x1="68.1499" y1="10.283" x2="68.1499" y2="31.7913" gradientUnits="userSpaceOnUse">
<stop stop-color="#B16CEA"></stop>
<stop offset="0.3" stop-color="#FF5E69"></stop>
<stop offset="0.67" stop-color="#FF8A56"></stop>
<stop offset="1" stop-color="#FFA84B"></stop>
</linearGradient>
<linearGradient id="paint3_linear_2234_1966" x1="19.583" y1="34.4314" x2="19.583" y2="60.3079" gradientUnits="userSpaceOnUse">
<stop stop-color="#B16CEA"></stop>
<stop offset="0.3" stop-color="#FF5E69"></stop>
<stop offset="0.67" stop-color="#FF8A56"></stop>
<stop offset="1" stop-color="#FFA84B"></stop>
</linearGradient>
<linearGradient id="paint4_linear_2234_1966" x1="26.0385" y1="10.1475" x2="26.0385" y2="31.5495" gradientUnits="userSpaceOnUse">
<stop stop-color="#B16CEA"></stop>
<stop offset="0.3" stop-color="#FF5E69"></stop>
<stop offset="0.67" stop-color="#FF8A56"></stop>
<stop offset="1" stop-color="#FFA84B"></stop>
</linearGradient>
<linearGradient id="paint5_linear_2234_1966" x1="47.2613" y1="45.7949" x2="47.2613" y2="77.2246" gradientUnits="userSpaceOnUse">
<stop stop-color="#B16CEA"></stop>
<stop offset="0.3" stop-color="#FF5E69"></stop>
<stop offset="0.67" stop-color="#FF8A56"></stop>
<stop offset="1" stop-color="#FFA84B"></stop>
</linearGradient>
</defs>
</svg>
